<svg viewBox="0 0 1920 1080" xmlns="http://www.w3.org/2000/svg" width="1920" height="1080" preserveAspectRatio="xMidYMid slice"><defs><filter id="bm3g1" x="-30%" y="-30%" width="160%" height="160%"><feTurbulence type="fractalNoise" baseFrequency="0.0279" numOctaves="1" result="noise"/><feDisplacementMap in="SourceGraphic" in2="noise" scale="142.2" xChannelSelector="R" yChannelSelector="G" result="disp"/><feColorMatrix in="disp" type="hueRotate" values="102.2" result="hued"/><feColorMatrix in="hued" type="saturate" values="2.76" result="sat"/></filter><linearGradient id="bm3g2" x1="18.250365689375116%" y1="11.374092617239517%" x2="81.74963431062488%" y2="88.62590738276049%"><stop offset="0%" stop-color="hsla(226.8,57.0%,92.3%,0.700)"/><stop offset="100%" stop-color="hsla(277.3,72.2%,81.3%,0.700)"/></linearGradient></defs><rect width="1920" height="1080" fill="hsla(137.6,94.9%,12.7%,1.000)"/><g filter="url(#bm3g1)" ><g transform="translate(0.00,0.00) rotate(5.88) scale(1.371,2.005)" fill="hsla(122.6,63.7%,17.4%,0.788)" stroke="hsla(277.3,72.2%,81.3%,0.907)" stroke-width="8.36" opacity="0.936" style="mix-blend-mode:difference"><path d="M -646.0 57.5 L 407.0 414.4 L 785.7 -870.6 L 821.6 115.4 L 247.5 -626.6 Z"/></g><g transform="translate(960.00,0.00) rotate(5.88) scale(1.371,2.005)" fill="hsla(122.6,63.7%,17.4%,0.788)" stroke="hsla(277.3,72.2%,81.3%,0.907)" stroke-width="8.36" opacity="0.936" style="mix-blend-mode:difference"><path d="M -646.0 57.5 L 407.0 414.4 L 785.7 -870.6 L 821.6 115.4 L 247.5 -626.6 Z"/></g><g transform="translate(1920.00,0.00) rotate(5.88) scale(1.371,2.005)" fill="hsla(122.6,63.7%,17.4%,0.788)" stroke="hsla(277.3,72.2%,81.3%,0.907)" stroke-width="8.36" opacity="0.936" style="mix-blend-mode:difference"><path d="M -646.0 57.5 L 407.0 414.4 L 785.7 -870.6 L 821.6 115.4 L 247.5 -626.6 Z"/></g><g transform="translate(0.00,360.00) rotate(5.88) scale(1.371,2.005)" fill="hsla(122.6,63.7%,17.4%,0.788)" stroke="hsla(277.3,72.2%,81.3%,0.907)" stroke-width="8.36" opacity="0.936" style="mix-blend-mode:difference"><path d="M -646.0 57.5 L 407.0 414.4 L 785.7 -870.6 L 821.6 115.4 L 247.5 -626.6 Z"/></g><g transform="translate(960.00,360.00) rotate(5.88) scale(1.371,2.005)" fill="hsla(122.6,63.7%,17.4%,0.788)" stroke="hsla(277.3,72.2%,81.3%,0.907)" stroke-width="8.36" opacity="0.936" style="mix-blend-mode:difference"><path d="M -646.0 57.5 L 407.0 414.4 L 785.7 -870.6 L 821.6 115.4 L 247.5 -626.6 Z"/></g><g transform="translate(1920.00,360.00) rotate(5.88) scale(1.371,2.005)" fill="hsla(122.6,63.7%,17.4%,0.788)" stroke="hsla(277.3,72.2%,81.3%,0.907)" stroke-width="8.36" opacity="0.936" style="mix-blend-mode:difference"><path d="M -646.0 57.5 L 407.0 414.4 L 785.7 -870.6 L 821.6 115.4 L 247.5 -626.6 Z"/></g><g transform="translate(0.00,720.00) rotate(5.88) scale(1.371,2.005)" fill="hsla(122.6,63.7%,17.4%,0.788)" stroke="hsla(277.3,72.2%,81.3%,0.907)" stroke-width="8.36" opacity="0.936" style="mix-blend-mode:difference"><path d="M -646.0 57.5 L 407.0 414.4 L 785.7 -870.6 L 821.6 115.4 L 247.5 -626.6 Z"/></g><g transform="translate(960.00,720.00) rotate(5.88) scale(1.371,2.005)" fill="hsla(122.6,63.7%,17.4%,0.788)" stroke="hsla(277.3,72.2%,81.3%,0.907)" stroke-width="8.36" opacity="0.936" style="mix-blend-mode:difference"><path d="M -646.0 57.5 L 407.0 414.4 L 785.7 -870.6 L 821.6 115.4 L 247.5 -626.6 Z"/></g><g transform="translate(1920.00,720.00) rotate(5.88) scale(1.371,2.005)" fill="hsla(122.6,63.7%,17.4%,0.788)" stroke="hsla(277.3,72.2%,81.3%,0.907)" stroke-width="8.36" opacity="0.936" style="mix-blend-mode:difference"><path d="M -646.0 57.5 L 407.0 414.4 L 785.7 -870.6 L 821.6 115.4 L 247.5 -626.6 Z"/></g><g transform="translate(0.00,1080.00) rotate(5.88) scale(1.371,2.005)" fill="hsla(122.6,63.7%,17.4%,0.788)" stroke="hsla(277.3,72.2%,81.3%,0.907)" stroke-width="8.36" opacity="0.936" style="mix-blend-mode:difference"><path d="M -646.0 57.5 L 407.0 414.4 L 785.7 -870.6 L 821.6 115.4 L 247.5 -626.6 Z"/></g><g transform="translate(960.00,1080.00) rotate(5.88) scale(1.371,2.005)" fill="hsla(122.6,63.7%,17.4%,0.788)" stroke="hsla(277.3,72.2%,81.3%,0.907)" stroke-width="8.36" opacity="0.936" style="mix-blend-mode:difference"><path d="M -646.0 57.5 L 407.0 414.4 L 785.7 -870.6 L 821.6 115.4 L 247.5 -626.6 Z"/></g><g transform="translate(1920.00,1080.00) rotate(5.88) scale(1.371,2.005)" fill="hsla(122.6,63.7%,17.4%,0.788)" stroke="hsla(277.3,72.2%,81.3%,0.907)" stroke-width="8.36" opacity="0.936" style="mix-blend-mode:difference"><path d="M -646.0 57.5 L 407.0 414.4 L 785.7 -870.6 L 821.6 115.4 L 247.5 -626.6 Z"/></g></g><g transform="translate(0.00,0.00) rotate(100.05) scale(1.286,1.287)" fill="hsla(137.6,94.9%,12.7%,0.980)" stroke="hsla(334.3,42.5%,21.3%,0.546)" stroke-width="18.85" opacity="0.369" style="mix-blend-mode:overlay"><path d="M -201.9 718.1 L 945.8 393.6 L -267.3 21.5 L 456.0 -418.1 L 200.0 -829.8 Z"/></g><g transform="translate(640.00,0.00) rotate(100.05) scale(1.286,1.287)" fill="hsla(137.6,94.9%,12.7%,0.980)" stroke="hsla(334.3,42.5%,21.3%,0.546)" stroke-width="18.85" opacity="0.369" style="mix-blend-mode:overlay"><path d="M -201.9 718.1 L 945.8 393.6 L -267.3 21.5 L 456.0 -418.1 L 200.0 -829.8 Z"/></g><g transform="translate(1280.00,0.00) rotate(100.05) scale(1.286,1.287)" fill="hsla(137.6,94.9%,12.7%,0.980)" stroke="hsla(334.3,42.5%,21.3%,0.546)" stroke-width="18.85" opacity="0.369" style="mix-blend-mode:overlay"><path d="M -201.9 718.1 L 945.8 393.6 L -267.3 21.5 L 456.0 -418.1 L 200.0 -829.8 Z"/></g><g transform="translate(1920.00,0.00) rotate(100.05) scale(1.286,1.287)" fill="hsla(137.6,94.9%,12.7%,0.980)" stroke="hsla(334.3,42.5%,21.3%,0.546)" stroke-width="18.85" opacity="0.369" style="mix-blend-mode:overlay"><path d="M -201.9 718.1 L 945.8 393.6 L -267.3 21.5 L 456.0 -418.1 L 200.0 -829.8 Z"/></g><g transform="translate(0.00,1080.00) rotate(100.05) scale(1.286,1.287)" fill="hsla(137.6,94.9%,12.7%,0.980)" stroke="hsla(334.3,42.5%,21.3%,0.546)" stroke-width="18.85" opacity="0.369" style="mix-blend-mode:overlay"><path d="M -201.9 718.1 L 945.8 393.6 L -267.3 21.5 L 456.0 -418.1 L 200.0 -829.8 Z"/></g><g transform="translate(640.00,1080.00) rotate(100.05) scale(1.286,1.287)" fill="hsla(137.6,94.9%,12.7%,0.980)" stroke="hsla(334.3,42.5%,21.3%,0.546)" stroke-width="18.85" opacity="0.369" style="mix-blend-mode:overlay"><path d="M -201.9 718.1 L 945.8 393.6 L -267.3 21.5 L 456.0 -418.1 L 200.0 -829.8 Z"/></g><g transform="translate(1280.00,1080.00) rotate(100.05) scale(1.286,1.287)" fill="hsla(137.6,94.9%,12.7%,0.980)" stroke="hsla(334.3,42.5%,21.3%,0.546)" stroke-width="18.85" opacity="0.369" style="mix-blend-mode:overlay"><path d="M -201.9 718.1 L 945.8 393.6 L -267.3 21.5 L 456.0 -418.1 L 200.0 -829.8 Z"/></g><g transform="translate(1920.00,1080.00) rotate(100.05) scale(1.286,1.287)" fill="hsla(137.6,94.9%,12.7%,0.980)" stroke="hsla(334.3,42.5%,21.3%,0.546)" stroke-width="18.85" opacity="0.369" style="mix-blend-mode:overlay"><path d="M -201.9 718.1 L 945.8 393.6 L -267.3 21.5 L 456.0 -418.1 L 200.0 -829.8 Z"/></g><g transform="translate(1483.15,557.78) rotate(288.76) scale(1.954,1.756)" fill="url(#bm3g2)" stroke="hsla(226.8,57.0%,92.3%,0.649)" stroke-width="21.48" opacity="0.600" style="mix-blend-mode:multiply"><ellipse cx="0" cy="0" rx="591.76" ry="77.44"/></g><g transform="translate(1384.84,761.93) rotate(340.19) scale(1.954,1.756)" fill="url(#bm3g2)" stroke="hsla(226.8,57.0%,92.3%,0.649)" stroke-width="21.48" opacity="0.600" style="mix-blend-mode:multiply"><ellipse cx="0" cy="0" rx="591.76" ry="77.44"/></g><g transform="translate(1163.94,812.34) rotate(391.62) scale(1.954,1.756)" fill="url(#bm3g2)" stroke="hsla(226.8,57.0%,92.3%,0.649)" stroke-width="21.48" opacity="0.600" style="mix-blend-mode:multiply"><ellipse cx="0" cy="0" rx="591.76" ry="77.44"/></g><g transform="translate(986.79,671.07) rotate(443.04) scale(1.954,1.756)" fill="url(#bm3g2)" stroke="hsla(226.8,57.0%,92.3%,0.649)" stroke-width="21.48" opacity="0.600" style="mix-blend-mode:multiply"><ellipse cx="0" cy="0" rx="591.76" ry="77.44"/></g><g transform="translate(986.79,444.49) rotate(494.47) scale(1.954,1.756)" fill="url(#bm3g2)" stroke="hsla(226.8,57.0%,92.3%,0.649)" stroke-width="21.48" opacity="0.600" style="mix-blend-mode:multiply"><ellipse cx="0" cy="0" rx="591.76" ry="77.44"/></g><g transform="translate(1163.94,303.22) rotate(545.90) scale(1.954,1.756)" fill="url(#bm3g2)" stroke="hsla(226.8,57.0%,92.3%,0.649)" stroke-width="21.48" opacity="0.600" style="mix-blend-mode:multiply"><ellipse cx="0" cy="0" rx="591.76" ry="77.44"/></g><g transform="translate(1384.84,353.64) rotate(597.33) scale(1.954,1.756)" fill="url(#bm3g2)" stroke="hsla(226.8,57.0%,92.3%,0.649)" stroke-width="21.48" opacity="0.600" style="mix-blend-mode:multiply"><ellipse cx="0" cy="0" rx="591.76" ry="77.44"/></g><metadata><evolvesvg:genome xmlns:evolvesvg="https://evolvesvg">{"palette":[{"h":137.56556508710543,"s":94.9351140124656,"l":12.710651094742667},{"h":122.55499837267331,"s":63.74392844720492,"l":17.434249727355304},{"h":226.8448293621476,"s":57.00102208217177,"l":92.33877971086683},{"h":277.2525210273516,"s":72.24873149788107,"l":81.31302607627354},{"h":248.5983794117882,"s":77.32373680113159,"l":71.84370055592179},{"h":334.32331135977734,"s":42.498061894017795,"l":21.328879540998543}],"background":{"type":"solid","paletteIdx":0,"paletteIdx2":1,"angle":168.0480333254684},"layers":[{"type":"path","cx":0.818137834551725,"cy":0.051672911835763086,"params":{"pts":[[0.16351984520460874,0.5299683510556605],[0.7119880335100552,0.7158316534649304],[0.9092048921143657,0.04657464851662568],[0.9279009903444386,0.5601282144386154],[0.6288997855151421,0.17365964938527148]]},"fill":{"type":"solid","paletteIdx":1,"paletteIdx2":4,"alpha":0.7878694206704273,"angle":26.336041764076754},"stroke":{"paletteIdx":3,"width":0.004353397017154501,"alpha":0.9074598191942589},"opacity":0.9362962124055545,"blendMode":"difference","transform":{"rotate":5.8798567321441055,"scaleX":1.371051200658503,"scaleY":2.0051991021105686},"arrangement":"grid","arrangementParams":{"nx":3,"ny":4},"displace":{"scale":142.15848306863916,"baseFreq":0.0278766745502276,"octaves":1},"colorShift":{"hueRotate":102.22386564573912,"saturate":2.7590660154992066}},{"type":"path","cx":0.4753155573135673,"cy":0.3162654693444006,"params":{"pts":[[0.3948687089702627,0.8740294530080044],[0.9925953813492403,0.70497647059694],[0.3607957778989173,0.5112153339661987],[0.7375150638988458,0.2822590407971514],[0.6041874436310491,0.06781535968010392]]},"fill":{"type":"solid","paletteIdx":0,"paletteIdx2":5,"alpha":0.9797916739692314,"angle":251.38327444312117},"stroke":{"paletteIdx":5,"width":0.00981577409933703,"alpha":0.5456311253090674},"opacity":0.36901675792385347,"blendMode":"overlay","transform":{"rotate":100.05382998605694,"scaleX":1.286442321781187,"scaleY":1.2871337870495716},"arrangement":"grid","arrangementParams":{"nx":4,"ny":2}},{"type":"ellipse","cx":0.6364795073011885,"cy":0.5164644817282256,"params":{"rx":0.30821049985692406,"ry":0.04033429061095282},"fill":{"type":"linear","paletteIdx":2,"paletteIdx2":3,"alpha":0.7000109863986869,"angle":50.58055798076305},"stroke":{"paletteIdx":2,"width":0.011186867850946348,"alpha":0.649094993099837},"opacity":0.5995278183427106,"blendMode":"multiply","transform":{"rotate":288.7578739514704,"scaleX":1.9539909501992188,"scaleY":1.7563204874422877},"arrangement":"radial","arrangementParams":{"count":7}}]}</evolvesvg:genome></metadata></svg>