<svg viewBox="0 0 1920 1080" xmlns="http://www.w3.org/2000/svg" width="1920" height="1080" preserveAspectRatio="xMidYMid slice"><defs><linearGradient id="bm8g1" x1="4.183152445262789%" y1="70.02040159801923%" x2="95.81684755473721%" y2="29.979598401980766%"><stop offset="0%" stop-color="hsla(244.1,89.7%,85.9%,1.000)"/><stop offset="100%" stop-color="hsla(258.5,100.0%,16.0%,1.000)"/></linearGradient><linearGradient id="bm8g2" x1="39.34820173996301%" y1="98.85221790080234%" x2="60.65179826003699%" y2="1.1477820991976584%"><stop offset="0%" stop-color="hsla(258.5,100.0%,16.0%,0.888)"/><stop offset="100%" stop-color="hsla(244.1,89.7%,85.9%,0.888)"/></linearGradient><filter id="bm8g3" x="-30%" y="-30%" width="160%" height="160%"><feTurbulence type="fractalNoise" baseFrequency="0.0045" numOctaves="3" result="noise"/><feDisplacementMap in="SourceGraphic" in2="noise" scale="64.3" xChannelSelector="R" yChannelSelector="G" result="disp"/><feColorMatrix in="disp" type="hueRotate" values="116.6" result="hued"/><feColorMatrix in="hued" type="saturate" values="1.47" result="sat"/></filter><linearGradient id="bm8g4" x1="62.07789419277625%" y1="98.5193206039419%" x2="37.92210580722375%" y2="1.4806793960580933%"><stop offset="0%" stop-color="hsla(258.5,100.0%,16.0%,1.000)"/><stop offset="100%" stop-color="hsla(258.5,100.0%,16.0%,1.000)"/></linearGradient></defs><rect width="1920" height="1080" fill="url(#bm8g1)"/><g filter="url(#bm8g3)" ><g transform="translate(0.00,0.00) rotate(328.30) scale(0.931,0.360)" fill="url(#bm8g2)" stroke="hsla(244.1,89.7%,85.9%,0.846)" stroke-width="14.83" opacity="0.928" style="mix-blend-mode:overlay"><ellipse cx="0" cy="0" rx="124.82" ry="605.04"/></g><g transform="translate(480.00,0.00) rotate(328.30) scale(0.931,0.360)" fill="url(#bm8g2)" stroke="hsla(244.1,89.7%,85.9%,0.846)" stroke-width="14.83" opacity="0.928" style="mix-blend-mode:overlay"><ellipse cx="0" cy="0" rx="124.82" ry="605.04"/></g><g transform="translate(960.00,0.00) rotate(328.30) scale(0.931,0.360)" fill="url(#bm8g2)" stroke="hsla(244.1,89.7%,85.9%,0.846)" stroke-width="14.83" opacity="0.928" style="mix-blend-mode:overlay"><ellipse cx="0" cy="0" rx="124.82" ry="605.04"/></g><g transform="translate(1440.00,0.00) rotate(328.30) scale(0.931,0.360)" fill="url(#bm8g2)" stroke="hsla(244.1,89.7%,85.9%,0.846)" stroke-width="14.83" opacity="0.928" style="mix-blend-mode:overlay"><ellipse cx="0" cy="0" rx="124.82" ry="605.04"/></g><g transform="translate(1920.00,0.00) rotate(328.30) scale(0.931,0.360)" fill="url(#bm8g2)" stroke="hsla(244.1,89.7%,85.9%,0.846)" stroke-width="14.83" opacity="0.928" style="mix-blend-mode:overlay"><ellipse cx="0" cy="0" rx="124.82" ry="605.04"/></g><g transform="translate(0.00,270.00) rotate(328.30) scale(0.931,0.360)" fill="url(#bm8g2)" stroke="hsla(244.1,89.7%,85.9%,0.846)" stroke-width="14.83" opacity="0.928" style="mix-blend-mode:overlay"><ellipse cx="0" cy="0" rx="124.82" ry="605.04"/></g><g transform="translate(480.00,270.00) rotate(328.30) scale(0.931,0.360)" fill="url(#bm8g2)" stroke="hsla(244.1,89.7%,85.9%,0.846)" stroke-width="14.83" opacity="0.928" style="mix-blend-mode:overlay"><ellipse cx="0" cy="0" rx="124.82" ry="605.04"/></g><g transform="translate(960.00,270.00) rotate(328.30) scale(0.931,0.360)" fill="url(#bm8g2)" stroke="hsla(244.1,89.7%,85.9%,0.846)" stroke-width="14.83" opacity="0.928" style="mix-blend-mode:overlay"><ellipse cx="0" cy="0" rx="124.82" ry="605.04"/></g><g transform="translate(1440.00,270.00) rotate(328.30) scale(0.931,0.360)" fill="url(#bm8g2)" stroke="hsla(244.1,89.7%,85.9%,0.846)" stroke-width="14.83" opacity="0.928" style="mix-blend-mode:overlay"><ellipse cx="0" cy="0" rx="124.82" ry="605.04"/></g><g transform="translate(1920.00,270.00) rotate(328.30) scale(0.931,0.360)" fill="url(#bm8g2)" stroke="hsla(244.1,89.7%,85.9%,0.846)" stroke-width="14.83" opacity="0.928" style="mix-blend-mode:overlay"><ellipse cx="0" cy="0" rx="124.82" ry="605.04"/></g><g transform="translate(0.00,540.00) rotate(328.30) scale(0.931,0.360)" fill="url(#bm8g2)" stroke="hsla(244.1,89.7%,85.9%,0.846)" stroke-width="14.83" opacity="0.928" style="mix-blend-mode:overlay"><ellipse cx="0" cy="0" rx="124.82" ry="605.04"/></g><g transform="translate(480.00,540.00) rotate(328.30) scale(0.931,0.360)" fill="url(#bm8g2)" stroke="hsla(244.1,89.7%,85.9%,0.846)" stroke-width="14.83" opacity="0.928" style="mix-blend-mode:overlay"><ellipse cx="0" cy="0" rx="124.82" ry="605.04"/></g><g transform="translate(960.00,540.00) rotate(328.30) scale(0.931,0.360)" fill="url(#bm8g2)" stroke="hsla(244.1,89.7%,85.9%,0.846)" stroke-width="14.83" opacity="0.928" style="mix-blend-mode:overlay"><ellipse cx="0" cy="0" rx="124.82" ry="605.04"/></g><g transform="translate(1440.00,540.00) rotate(328.30) scale(0.931,0.360)" fill="url(#bm8g2)" stroke="hsla(244.1,89.7%,85.9%,0.846)" stroke-width="14.83" opacity="0.928" style="mix-blend-mode:overlay"><ellipse cx="0" cy="0" rx="124.82" ry="605.04"/></g><g transform="translate(1920.00,540.00) rotate(328.30) scale(0.931,0.360)" fill="url(#bm8g2)" stroke="hsla(244.1,89.7%,85.9%,0.846)" stroke-width="14.83" opacity="0.928" style="mix-blend-mode:overlay"><ellipse cx="0" cy="0" rx="124.82" ry="605.04"/></g><g transform="translate(0.00,810.00) rotate(328.30) scale(0.931,0.360)" fill="url(#bm8g2)" stroke="hsla(244.1,89.7%,85.9%,0.846)" stroke-width="14.83" opacity="0.928" style="mix-blend-mode:overlay"><ellipse cx="0" cy="0" rx="124.82" ry="605.04"/></g><g transform="translate(480.00,810.00) rotate(328.30) scale(0.931,0.360)" fill="url(#bm8g2)" stroke="hsla(244.1,89.7%,85.9%,0.846)" stroke-width="14.83" opacity="0.928" style="mix-blend-mode:overlay"><ellipse cx="0" cy="0" rx="124.82" ry="605.04"/></g><g transform="translate(960.00,810.00) rotate(328.30) scale(0.931,0.360)" fill="url(#bm8g2)" stroke="hsla(244.1,89.7%,85.9%,0.846)" stroke-width="14.83" opacity="0.928" style="mix-blend-mode:overlay"><ellipse cx="0" cy="0" rx="124.82" ry="605.04"/></g><g transform="translate(1440.00,810.00) rotate(328.30) scale(0.931,0.360)" fill="url(#bm8g2)" stroke="hsla(244.1,89.7%,85.9%,0.846)" stroke-width="14.83" opacity="0.928" style="mix-blend-mode:overlay"><ellipse cx="0" cy="0" rx="124.82" ry="605.04"/></g><g transform="translate(1920.00,810.00) rotate(328.30) scale(0.931,0.360)" fill="url(#bm8g2)" stroke="hsla(244.1,89.7%,85.9%,0.846)" stroke-width="14.83" opacity="0.928" style="mix-blend-mode:overlay"><ellipse cx="0" cy="0" rx="124.82" ry="605.04"/></g><g transform="translate(0.00,1080.00) rotate(328.30) scale(0.931,0.360)" fill="url(#bm8g2)" stroke="hsla(244.1,89.7%,85.9%,0.846)" stroke-width="14.83" opacity="0.928" style="mix-blend-mode:overlay"><ellipse cx="0" cy="0" rx="124.82" ry="605.04"/></g><g transform="translate(480.00,1080.00) rotate(328.30) scale(0.931,0.360)" fill="url(#bm8g2)" stroke="hsla(244.1,89.7%,85.9%,0.846)" stroke-width="14.83" opacity="0.928" style="mix-blend-mode:overlay"><ellipse cx="0" cy="0" rx="124.82" ry="605.04"/></g><g transform="translate(960.00,1080.00) rotate(328.30) scale(0.931,0.360)" fill="url(#bm8g2)" stroke="hsla(244.1,89.7%,85.9%,0.846)" stroke-width="14.83" opacity="0.928" style="mix-blend-mode:overlay"><ellipse cx="0" cy="0" rx="124.82" ry="605.04"/></g><g transform="translate(1440.00,1080.00) rotate(328.30) scale(0.931,0.360)" fill="url(#bm8g2)" stroke="hsla(244.1,89.7%,85.9%,0.846)" stroke-width="14.83" opacity="0.928" style="mix-blend-mode:overlay"><ellipse cx="0" cy="0" rx="124.82" ry="605.04"/></g><g transform="translate(1920.00,1080.00) rotate(328.30) scale(0.931,0.360)" fill="url(#bm8g2)" stroke="hsla(244.1,89.7%,85.9%,0.846)" stroke-width="14.83" opacity="0.928" style="mix-blend-mode:overlay"><ellipse cx="0" cy="0" rx="124.82" ry="605.04"/></g></g><g transform="translate(0.00,0.00) rotate(313.74) scale(1.288,0.947)" fill="url(#bm8g4)" stroke="hsla(258.5,100.0%,16.0%,0.426)" stroke-width="27.24" opacity="0.734" style="mix-blend-mode:overlay"><path d="M 672.0 219.4 L 392.9 -889.2 L 186.6 909.4 Z"/></g><g transform="translate(480.00,0.00) rotate(313.74) scale(1.288,0.947)" fill="url(#bm8g4)" stroke="hsla(258.5,100.0%,16.0%,0.426)" stroke-width="27.24" opacity="0.734" style="mix-blend-mode:overlay"><path d="M 672.0 219.4 L 392.9 -889.2 L 186.6 909.4 Z"/></g><g transform="translate(960.00,0.00) rotate(313.74) scale(1.288,0.947)" fill="url(#bm8g4)" stroke="hsla(258.5,100.0%,16.0%,0.426)" stroke-width="27.24" opacity="0.734" style="mix-blend-mode:overlay"><path d="M 672.0 219.4 L 392.9 -889.2 L 186.6 909.4 Z"/></g><g transform="translate(1440.00,0.00) rotate(313.74) scale(1.288,0.947)" fill="url(#bm8g4)" stroke="hsla(258.5,100.0%,16.0%,0.426)" stroke-width="27.24" opacity="0.734" style="mix-blend-mode:overlay"><path d="M 672.0 219.4 L 392.9 -889.2 L 186.6 909.4 Z"/></g><g transform="translate(1920.00,0.00) rotate(313.74) scale(1.288,0.947)" fill="url(#bm8g4)" stroke="hsla(258.5,100.0%,16.0%,0.426)" stroke-width="27.24" opacity="0.734" style="mix-blend-mode:overlay"><path d="M 672.0 219.4 L 392.9 -889.2 L 186.6 909.4 Z"/></g><g transform="translate(0.00,360.00) rotate(313.74) scale(1.288,0.947)" fill="url(#bm8g4)" stroke="hsla(258.5,100.0%,16.0%,0.426)" stroke-width="27.24" opacity="0.734" style="mix-blend-mode:overlay"><path d="M 672.0 219.4 L 392.9 -889.2 L 186.6 909.4 Z"/></g><g transform="translate(480.00,360.00) rotate(313.74) scale(1.288,0.947)" fill="url(#bm8g4)" stroke="hsla(258.5,100.0%,16.0%,0.426)" stroke-width="27.24" opacity="0.734" style="mix-blend-mode:overlay"><path d="M 672.0 219.4 L 392.9 -889.2 L 186.6 909.4 Z"/></g><g transform="translate(960.00,360.00) rotate(313.74) scale(1.288,0.947)" fill="url(#bm8g4)" stroke="hsla(258.5,100.0%,16.0%,0.426)" stroke-width="27.24" opacity="0.734" style="mix-blend-mode:overlay"><path d="M 672.0 219.4 L 392.9 -889.2 L 186.6 909.4 Z"/></g><g transform="translate(1440.00,360.00) rotate(313.74) scale(1.288,0.947)" fill="url(#bm8g4)" stroke="hsla(258.5,100.0%,16.0%,0.426)" stroke-width="27.24" opacity="0.734" style="mix-blend-mode:overlay"><path d="M 672.0 219.4 L 392.9 -889.2 L 186.6 909.4 Z"/></g><g transform="translate(1920.00,360.00) rotate(313.74) scale(1.288,0.947)" fill="url(#bm8g4)" stroke="hsla(258.5,100.0%,16.0%,0.426)" stroke-width="27.24" opacity="0.734" style="mix-blend-mode:overlay"><path d="M 672.0 219.4 L 392.9 -889.2 L 186.6 909.4 Z"/></g><g transform="translate(0.00,720.00) rotate(313.74) scale(1.288,0.947)" fill="url(#bm8g4)" stroke="hsla(258.5,100.0%,16.0%,0.426)" stroke-width="27.24" opacity="0.734" style="mix-blend-mode:overlay"><path d="M 672.0 219.4 L 392.9 -889.2 L 186.6 909.4 Z"/></g><g transform="translate(480.00,720.00) rotate(313.74) scale(1.288,0.947)" fill="url(#bm8g4)" stroke="hsla(258.5,100.0%,16.0%,0.426)" stroke-width="27.24" opacity="0.734" style="mix-blend-mode:overlay"><path d="M 672.0 219.4 L 392.9 -889.2 L 186.6 909.4 Z"/></g><g transform="translate(960.00,720.00) rotate(313.74) scale(1.288,0.947)" fill="url(#bm8g4)" stroke="hsla(258.5,100.0%,16.0%,0.426)" stroke-width="27.24" opacity="0.734" style="mix-blend-mode:overlay"><path d="M 672.0 219.4 L 392.9 -889.2 L 186.6 909.4 Z"/></g><g transform="translate(1440.00,720.00) rotate(313.74) scale(1.288,0.947)" fill="url(#bm8g4)" stroke="hsla(258.5,100.0%,16.0%,0.426)" stroke-width="27.24" opacity="0.734" style="mix-blend-mode:overlay"><path d="M 672.0 219.4 L 392.9 -889.2 L 186.6 909.4 Z"/></g><g transform="translate(1920.00,720.00) rotate(313.74) scale(1.288,0.947)" fill="url(#bm8g4)" stroke="hsla(258.5,100.0%,16.0%,0.426)" stroke-width="27.24" opacity="0.734" style="mix-blend-mode:overlay"><path d="M 672.0 219.4 L 392.9 -889.2 L 186.6 909.4 Z"/></g><g transform="translate(0.00,1080.00) rotate(313.74) scale(1.288,0.947)" fill="url(#bm8g4)" stroke="hsla(258.5,100.0%,16.0%,0.426)" stroke-width="27.24" opacity="0.734" style="mix-blend-mode:overlay"><path d="M 672.0 219.4 L 392.9 -889.2 L 186.6 909.4 Z"/></g><g transform="translate(480.00,1080.00) rotate(313.74) scale(1.288,0.947)" fill="url(#bm8g4)" stroke="hsla(258.5,100.0%,16.0%,0.426)" stroke-width="27.24" opacity="0.734" style="mix-blend-mode:overlay"><path d="M 672.0 219.4 L 392.9 -889.2 L 186.6 909.4 Z"/></g><g transform="translate(960.00,1080.00) rotate(313.74) scale(1.288,0.947)" fill="url(#bm8g4)" stroke="hsla(258.5,100.0%,16.0%,0.426)" stroke-width="27.24" opacity="0.734" style="mix-blend-mode:overlay"><path d="M 672.0 219.4 L 392.9 -889.2 L 186.6 909.4 Z"/></g><g transform="translate(1440.00,1080.00) rotate(313.74) scale(1.288,0.947)" fill="url(#bm8g4)" stroke="hsla(258.5,100.0%,16.0%,0.426)" stroke-width="27.24" opacity="0.734" style="mix-blend-mode:overlay"><path d="M 672.0 219.4 L 392.9 -889.2 L 186.6 909.4 Z"/></g><g transform="translate(1920.00,1080.00) rotate(313.74) scale(1.288,0.947)" fill="url(#bm8g4)" stroke="hsla(258.5,100.0%,16.0%,0.426)" stroke-width="27.24" opacity="0.734" style="mix-blend-mode:overlay"><path d="M 672.0 219.4 L 392.9 -889.2 L 186.6 909.4 Z"/></g><metadata><evolvesvg:genome xmlns:evolvesvg="https://evolvesvg">{"palette":[{"h":244.07338853895044,"s":89.70088674986454,"l":85.91385595405984},{"h":258.46048300297423,"s":100,"l":16.03547870703323}],"background":{"type":"linear","paletteIdx":0,"paletteIdx2":1,"angle":336.39631099754286},"layers":[{"type":"ellipse","cx":0.6770381892236778,"cy":0.3971625094023967,"params":{"rx":0.0650094185548627,"ry":0.31512741988059884},"fill":{"type":"linear","paletteIdx":1,"paletteIdx2":0,"alpha":0.8880594724984122,"angle":282.3003271588427},"stroke":{"paletteIdx":2,"width":0.007726344122330911,"alpha":0.8459829368837626},"opacity":0.9277316619100682,"blendMode":"overlay","transform":{"rotate":328.304898124631,"scaleX":0.9306280824326467,"scaleY":0.35968954706394496},"arrangement":"grid","arrangementParams":{"nx":5,"ny":5},"colorShift":{"hueRotate":116.5567609509136,"saturate":1.4731043690265089},"displace":{"scale":64.33400058889882,"baseFreq":0.004521402753107118,"octaves":3}},{"type":"path","cx":0.2631629281540268,"cy":0.23132433866635227,"params":{"pts":[[0.8500109323030517,0.6142452654442342],[0.7046117020548472,0.03685970970048319],[0.5972061386063956,0.9736256077412573]]},"fill":{"type":"linear","paletteIdx":1,"paletteIdx2":1,"alpha":1,"angle":256.0214938201118},"stroke":{"paletteIdx":1,"width":0.01418611611337045,"alpha":0.42626400119916774},"opacity":0.7343988164350077,"blendMode":"overlay","transform":{"rotate":313.7430241294744,"scaleX":1.287955725629614,"scaleY":0.9467849968429225},"arrangement":"grid","arrangementParams":{"nx":5,"ny":4}}]}</evolvesvg:genome></metadata></svg>