<svg viewBox="0 0 1920 1080" xmlns="http://www.w3.org/2000/svg" width="1920" height="1080" preserveAspectRatio="xMidYMid slice"><defs><radialGradient id="bm5g1" cx="50%" cy="50%" r="50%"><stop offset="0%" stop-color="hsla(55.0,53.1%,28.8%,0.859)"/><stop offset="100%" stop-color="hsla(154.1,82.8%,5.0%,0.859)"/></radialGradient><filter id="bm5g2" x="-30%" y="-30%" width="160%" height="160%"><feTurbulence type="fractalNoise" baseFrequency="0.0317" numOctaves="2" result="noise"/><feDisplacementMap in="SourceGraphic" in2="noise" scale="134.3" xChannelSelector="R" yChannelSelector="G" result="disp"/><feColorMatrix in="disp" type="hueRotate" values="139.2" result="hued"/><feColorMatrix in="hued" type="saturate" values="2.75" result="sat"/></filter><linearGradient id="bm5g3" x1="17.964203925130462%" y1="11.611098350573073%" x2="82.03579607486954%" y2="88.38890164942693%"><stop offset="0%" stop-color="hsla(154.1,82.8%,5.0%,0.374)"/><stop offset="100%" stop-color="hsla(211.0,82.8%,26.6%,0.374)"/></linearGradient><pattern id="bm5g4" x="0" y="0" width="21.377524277683058" height="21.377524277683058" patternUnits="userSpaceOnUse" patternTransform="rotate(16.1)"><line x1="0" y1="0" x2="0" y2="21.377524277683058" stroke="url(#bm5g3)" stroke-width="23.79"/><line x1="0" y1="0" x2="21.377524277683058" y2="0" stroke="url(#bm5g3)" stroke-width="23.79"/></pattern><filter id="bm5g5" x="-30%" y="-30%" width="160%" height="160%"><feColorMatrix in="SourceGraphic" type="hueRotate" values="194.9" result="hued"/><feColorMatrix in="hued" type="saturate" values="0.42" result="sat"/></filter><radialGradient id="bm5g6" cx="50%" cy="50%" r="50%"><stop offset="0%" stop-color="hsla(211.0,82.8%,26.6%,0.242)"/><stop offset="100%" stop-color="hsla(211.0,82.8%,26.6%,0.242)"/></radialGradient><pattern id="bm5g7" x="0" y="0" width="199.40149398827842" height="199.40149398827842" patternUnits="userSpaceOnUse"><rect x="0" y="0" width="99.70074699413921" height="99.70074699413921" fill="url(#bm5g6)"/><rect x="99.70074699413921" y="99.70074699413921" width="99.70074699413921" height="99.70074699413921" fill="url(#bm5g6)"/></pattern><radialGradient id="bm5g8" cx="854.1" cy="251.0" r="1675.3" gradientUnits="userSpaceOnUse"><stop offset="0%" stop-color="white"/><stop offset="100%" stop-color="black"/></radialGradient><mask id="bm5g9"><rect x="-1920" y="-1080" width="5760" height="3240" fill="url(#bm5g8)"/></mask></defs><rect width="1920" height="1080" fill="hsla(154.1,82.8%,5.0%,1.000)"/><g filter="url(#bm5g2)" ><g transform="translate(0.00,0.00) rotate(1.43) scale(1.366,2.002)" fill="url(#bm5g1)" stroke="hsla(187.2,83.6%,80.1%,0.728)" stroke-width="17.72" opacity="1.000" style="mix-blend-mode:difference"><path d="M -27.1 483.9 L -76.7 524.3 L 736.0 -539.2 L 440.0 430.5 L 118.1 -585.3 Z"/></g><g transform="translate(960.00,0.00) rotate(1.43) scale(1.366,2.002)" fill="url(#bm5g1)" stroke="hsla(187.2,83.6%,80.1%,0.728)" stroke-width="17.72" opacity="1.000" style="mix-blend-mode:difference"><path d="M -27.1 483.9 L -76.7 524.3 L 736.0 -539.2 L 440.0 430.5 L 118.1 -585.3 Z"/></g><g transform="translate(1920.00,0.00) rotate(1.43) scale(1.366,2.002)" fill="url(#bm5g1)" stroke="hsla(187.2,83.6%,80.1%,0.728)" stroke-width="17.72" opacity="1.000" style="mix-blend-mode:difference"><path d="M -27.1 483.9 L -76.7 524.3 L 736.0 -539.2 L 440.0 430.5 L 118.1 -585.3 Z"/></g><g transform="translate(0.00,360.00) rotate(1.43) scale(1.366,2.002)" fill="url(#bm5g1)" stroke="hsla(187.2,83.6%,80.1%,0.728)" stroke-width="17.72" opacity="1.000" style="mix-blend-mode:difference"><path d="M -27.1 483.9 L -76.7 524.3 L 736.0 -539.2 L 440.0 430.5 L 118.1 -585.3 Z"/></g><g transform="translate(960.00,360.00) rotate(1.43) scale(1.366,2.002)" fill="url(#bm5g1)" stroke="hsla(187.2,83.6%,80.1%,0.728)" stroke-width="17.72" opacity="1.000" style="mix-blend-mode:difference"><path d="M -27.1 483.9 L -76.7 524.3 L 736.0 -539.2 L 440.0 430.5 L 118.1 -585.3 Z"/></g><g transform="translate(1920.00,360.00) rotate(1.43) scale(1.366,2.002)" fill="url(#bm5g1)" stroke="hsla(187.2,83.6%,80.1%,0.728)" stroke-width="17.72" opacity="1.000" style="mix-blend-mode:difference"><path d="M -27.1 483.9 L -76.7 524.3 L 736.0 -539.2 L 440.0 430.5 L 118.1 -585.3 Z"/></g><g transform="translate(0.00,720.00) rotate(1.43) scale(1.366,2.002)" fill="url(#bm5g1)" stroke="hsla(187.2,83.6%,80.1%,0.728)" stroke-width="17.72" opacity="1.000" style="mix-blend-mode:difference"><path d="M -27.1 483.9 L -76.7 524.3 L 736.0 -539.2 L 440.0 430.5 L 118.1 -585.3 Z"/></g><g transform="translate(960.00,720.00) rotate(1.43) scale(1.366,2.002)" fill="url(#bm5g1)" stroke="hsla(187.2,83.6%,80.1%,0.728)" stroke-width="17.72" opacity="1.000" style="mix-blend-mode:difference"><path d="M -27.1 483.9 L -76.7 524.3 L 736.0 -539.2 L 440.0 430.5 L 118.1 -585.3 Z"/></g><g transform="translate(1920.00,720.00) rotate(1.43) scale(1.366,2.002)" fill="url(#bm5g1)" stroke="hsla(187.2,83.6%,80.1%,0.728)" stroke-width="17.72" opacity="1.000" style="mix-blend-mode:difference"><path d="M -27.1 483.9 L -76.7 524.3 L 736.0 -539.2 L 440.0 430.5 L 118.1 -585.3 Z"/></g><g transform="translate(0.00,1080.00) rotate(1.43) scale(1.366,2.002)" fill="url(#bm5g1)" stroke="hsla(187.2,83.6%,80.1%,0.728)" stroke-width="17.72" opacity="1.000" style="mix-blend-mode:difference"><path d="M -27.1 483.9 L -76.7 524.3 L 736.0 -539.2 L 440.0 430.5 L 118.1 -585.3 Z"/></g><g transform="translate(960.00,1080.00) rotate(1.43) scale(1.366,2.002)" fill="url(#bm5g1)" stroke="hsla(187.2,83.6%,80.1%,0.728)" stroke-width="17.72" opacity="1.000" style="mix-blend-mode:difference"><path d="M -27.1 483.9 L -76.7 524.3 L 736.0 -539.2 L 440.0 430.5 L 118.1 -585.3 Z"/></g><g transform="translate(1920.00,1080.00) rotate(1.43) scale(1.366,2.002)" fill="url(#bm5g1)" stroke="hsla(187.2,83.6%,80.1%,0.728)" stroke-width="17.72" opacity="1.000" style="mix-blend-mode:difference"><path d="M -27.1 483.9 L -76.7 524.3 L 736.0 -539.2 L 440.0 430.5 L 118.1 -585.3 Z"/></g></g><g opacity="0.819" style="mix-blend-mode:multiply" filter="url(#bm5g5)" ><rect x="-1920" y="-1080" width="5760" height="3240" fill="url(#bm5g4)"/></g><g opacity="0.705" style="mix-blend-mode:color-dodge"  mask="url(#bm5g9)"><rect x="-1920" y="-1080" width="5760" height="3240" fill="url(#bm5g7)"/></g><metadata><evolvesvg:genome xmlns:evolvesvg="https://evolvesvg">{"palette":[{"h":154.12414699452415,"s":82.78417049599577,"l":5},{"h":55.03882857939368,"s":53.14643576208017,"l":28.84869569760268},{"h":215.18996855005162,"s":37.61072866260393,"l":87.96956538896902},{"h":187.1662971161761,"s":83.62406710632789,"l":80.13758190353244},{"h":210.96467229325458,"s":82.7653775271608,"l":26.615697773692926}],"background":{"type":"solid","paletteIdx":0,"paletteIdx2":1,"angle":178.94863742942516},"layers":[{"type":"path","cx":0.523775953134628,"cy":0,"params":{"pts":[[0.4858893778489561,0.7520165795061611],[0.46006113606058496,0.7730860379766787],[0.8833589853174592,0.21914102098105606],[0.7291432358311918,0.7242245283475219],[0.5615155596882608,0.1951373959040677]]},"fill":{"type":"radial","paletteIdx":1,"paletteIdx2":0,"alpha":0.8594069141369194,"angle":7.188791814015076},"stroke":{"paletteIdx":3,"width":0.009228733401719093,"alpha":0.7280835809766453},"opacity":1,"blendMode":"difference","transform":{"rotate":1.4306702025667164,"scaleX":1.3658095811176063,"scaleY":2.0019597415947024},"arrangement":"grid","arrangementParams":{"nx":3,"ny":4},"displace":{"scale":134.2624566090669,"baseFreq":0.03166403426511071,"octaves":2},"colorShift":{"hueRotate":139.16724355808753,"saturate":2.7483206866923107}},{"type":"crosshatch","cx":0.5124868191504948,"cy":0.3283999450186472,"params":{"spacing":7.125841425894352,"lineWidth":7.931082531945426,"angle":16.058465503095995},"fill":{"type":"linear","paletteIdx":0,"paletteIdx2":4,"alpha":0.3741225208668813,"angle":50.15477530075759},"stroke":{"paletteIdx":1,"width":0.00938137642105701,"alpha":0.5354030953082136},"opacity":0.8189466008502009,"blendMode":"multiply","transform":{"rotate":298.4185263506065,"scaleX":2.015321854065695,"scaleY":1.9655805127642},"arrangement":"radial","arrangementParams":{"count":7},"colorShift":{"hueRotate":194.93005609330987,"saturate":0.41990887509692004}},{"type":"checkerboard","cx":0.3934553573265599,"cy":0.35834780112964093,"params":{"size":33.233582331379736},"fill":{"type":"radial","paletteIdx":4,"paletteIdx2":4,"alpha":0.24188559604044357,"angle":254.51431927573594},"stroke":{"paletteIdx":0,"width":0,"alpha":0.7062119508296052},"opacity":0.704828315913611,"blendMode":"color-dodge","transform":{"rotate":329.1321692929423,"scaleX":1.4809646984687412,"scaleY":1.721262889456084},"arrangement":"radial","arrangementParams":{"count":12},"mask":{"type":"radial","cx":0.44484039437908296,"cy":0.23237728750431216,"r":0.8725556782805692,"angle":34.739881961000115}}]}</evolvesvg:genome></metadata></svg>