<svg viewBox="0 0 1920 1080" xmlns="http://www.w3.org/2000/svg" width="1920" height="1080" preserveAspectRatio="xMidYMid slice"><defs><radialGradient id="bm3g1" cx="50%" cy="50%" r="50%"><stop offset="0%" stop-color="hsla(268.2,100.0%,39.7%,1.000)"/><stop offset="100%" stop-color="hsla(232.0,10.0%,5.0%,1.000)"/></radialGradient><radialGradient id="bm3g2" cx="50%" cy="50%" r="50%"><stop offset="0%" stop-color="hsla(305.5,57.2%,61.0%,1.000)"/><stop offset="100%" stop-color="hsla(337.0,67.5%,9.7%,1.000)"/></radialGradient><pattern id="bm3g3" x="0" y="0" width="99.94538388369156" height="99.94538388369156" patternUnits="userSpaceOnUse" patternTransform="rotate(67.5)"><line x1="0" y1="0" x2="0" y2="99.94538388369156" stroke="url(#bm3g2)" stroke-width="4.72"/><line x1="0" y1="0" x2="99.94538388369156" y2="0" stroke="url(#bm3g2)" stroke-width="4.72"/></pattern><filter id="bm3g4" x="-30%" y="-30%" width="160%" height="160%"><feTurbulence type="fractalNoise" baseFrequency="0.0544" numOctaves="1" result="noise"/><feDisplacementMap in="SourceGraphic" in2="noise" scale="84.5" xChannelSelector="R" yChannelSelector="G" result="disp"/><feColorMatrix in="disp" type="hueRotate" values="293.7" result="hued"/><feColorMatrix in="hued" type="saturate" values="0.82" result="sat"/></filter><radialGradient id="bm3g5" cx="316.8" cy="588.6" r="1472.2" gradientUnits="userSpaceOnUse"><stop offset="0%" stop-color="white"/><stop offset="100%" stop-color="black"/></radialGradient><mask id="bm3g6"><rect x="-1920" y="-1080" width="5760" height="3240" fill="url(#bm3g5)"/></mask><radialGradient id="bm3g7" cx="50%" cy="50%" r="50%"><stop offset="0%" stop-color="hsla(232.0,10.0%,5.0%,0.640)"/><stop offset="100%" stop-color="hsla(232.0,10.0%,5.0%,0.640)"/></radialGradient><filter id="bm3g8" x="-30%" y="-30%" width="160%" height="160%"><feColorMatrix in="SourceGraphic" type="hueRotate" values="343.4" result="hued"/><feColorMatrix in="hued" type="saturate" values="2.01" result="sat"/></filter><linearGradient id="bm3g9" x1="20.049069574570723%" y1="9.963244803667031%" x2="79.95093042542928%" y2="90.03675519633296%"><stop offset="0%" stop-color="hsla(305.5,57.2%,61.0%,0.700)"/><stop offset="100%" stop-color="hsla(337.0,67.5%,9.7%,0.700)"/></linearGradient><pattern id="bm3g10" x="0" y="0" width="1139.15" height="168.52887249366364" patternUnits="userSpaceOnUse"><path d="M 0 84.26443624683182 L 3.0 85.3 L 6.0 86.2 L 9.0 87.2 L 12.0 88.2 L 15.0 89.2 L 18.0 90.2 L 21.0 91.2 L 24.0 92.1 L 27.0 93.1 L 30.0 94.1 L 33.0 95.1 L 36.0 96.0 L 39.0 97.0 L 42.0 98.0 L 45.0 98.9 L 48.0 99.9 L 51.0 100.8 L 54.0 101.8 L 57.0 102.7 L 60.0 103.7 L 63.0 104.6 L 66.0 105.5 L 69.0 106.4 L 72.0 107.4 L 75.0 108.3 L 78.0 109.2 L 81.0 110.1 L 84.0 110.9 L 87.0 111.8 L 90.0 112.7 L 93.0 113.6 L 96.0 114.4 L 99.0 115.3 L 102.0 116.1 L 105.0 116.9 L 108.0 117.8 L 111.0 118.6 L 114.0 119.4 L 117.0 120.2 L 120.0 121.0 L 123.0 121.7 L 126.0 122.5 L 129.0 123.2 L 132.0 124.0 L 135.0 124.7 L 138.0 125.4 L 141.0 126.2 L 144.0 126.9 L 147.0 127.5 L 150.0 128.2 L 153.0 128.9 L 156.0 129.5 L 159.0 130.2 L 162.0 130.8 L 165.0 131.4 L 168.0 132.0 L 171.0 132.6 L 174.0 133.2 L 177.0 133.7 L 180.0 134.3 L 183.0 134.8 L 186.0 135.3 L 189.0 135.8 L 192.0 136.3 L 195.0 136.8 L 198.0 137.3 L 201.0 137.7 L 204.0 138.1 L 207.0 138.6 L 210.0 139.0 L 213.0 139.3 L 216.0 139.7 L 219.0 140.1 L 222.0 140.4 L 225.0 140.7 L 228.0 141.1 L 231.0 141.4 L 234.0 141.6 L 237.0 141.9 L 240.0 142.2 L 243.0 142.4 L 246.0 142.6 L 249.0 142.8 L 252.0 143.0 L 255.0 143.2 L 258.0 143.3 L 261.0 143.5 L 264.0 143.6 L 267.0 143.7 L 270.0 143.8 L 273.0 143.8 L 276.0 143.9 L 279.0 143.9 L 282.0 144.0 L 285.0 144.0 L 288.0 144.0 L 291.0 143.9 L 294.0 143.9 L 297.0 143.8 L 300.0 143.8 L 303.0 143.7 L 306.0 143.6 L 309.0 143.4 L 312.0 143.3 L 315.0 143.1 L 318.0 143.0 L 321.0 142.8 L 324.0 142.6 L 327.0 142.4 L 330.0 142.1 L 333.0 141.9 L 336.0 141.6 L 339.0 141.3 L 342.0 141.0 L 345.0 140.7 L 348.0 140.4 L 351.0 140.0 L 354.0 139.7 L 357.0 139.3 L 360.0 138.9 L 363.0 138.5 L 366.0 138.1 L 369.0 137.6 L 372.0 137.2 L 375.0 136.7 L 378.0 136.2 L 381.0 135.8 L 384.0 135.2 L 387.0 134.7 L 390.0 134.2 L 393.0 133.6 L 396.0 133.1 L 399.0 132.5 L 402.0 131.9 L 405.0 131.3 L 408.0 130.7 L 411.0 130.1 L 414.0 129.4 L 417.0 128.8 L 420.0 128.1 L 423.0 127.4 L 426.0 126.8 L 429.0 126.1 L 432.0 125.3 L 435.0 124.6 L 438.0 123.9 L 441.0 123.1 L 444.0 122.4 L 447.0 121.6 L 450.0 120.8 L 453.0 120.1 L 456.0 119.3 L 459.0 118.5 L 462.0 117.6 L 465.0 116.8 L 468.0 116.0 L 471.0 115.1 L 474.0 114.3 L 477.0 113.4 L 480.0 112.6 L 483.0 111.7 L 486.0 110.8 L 489.0 109.9 L 492.0 109.0 L 495.0 108.1 L 498.0 107.2 L 501.0 106.3 L 504.0 105.4 L 507.0 104.5 L 510.0 103.5 L 513.0 102.6 L 516.0 101.7 L 519.0 100.7 L 522.0 99.8 L 525.0 98.8 L 528.0 97.8 L 531.0 96.9 L 534.0 95.9 L 537.0 94.9 L 540.0 94.0 L 543.0 93.0 L 546.0 92.0 L 549.0 91.0 L 552.0 90.0 L 555.0 89.1 L 558.0 88.1 L 561.0 87.1 L 564.0 86.1 L 567.0 85.1 L 570.0 84.1 L 573.0 83.1 L 576.0 82.1 L 579.0 81.2 L 582.0 80.2 L 585.0 79.2 L 588.0 78.2 L 591.0 77.2 L 594.0 76.2 L 597.0 75.3 L 600.0 74.3 L 603.0 73.3 L 606.0 72.4 L 609.0 71.4 L 612.0 70.4 L 615.0 69.5 L 618.0 68.5 L 621.0 67.6 L 624.0 66.6 L 627.0 65.7 L 630.0 64.7 L 633.0 63.8 L 636.0 62.9 L 639.0 62.0 L 642.0 61.0 L 645.0 60.1 L 648.0 59.2 L 651.0 58.3 L 654.0 57.5 L 657.0 56.6 L 660.0 55.7 L 663.0 54.8 L 666.0 54.0 L 669.0 53.1 L 672.0 52.3 L 675.0 51.5 L 678.0 50.7 L 681.0 49.8 L 684.0 49.0 L 687.0 48.2 L 690.0 47.5 L 693.0 46.7 L 696.0 45.9 L 699.0 45.2 L 702.0 44.4 L 705.0 43.7 L 708.0 43.0 L 711.0 42.3 L 714.0 41.6 L 717.0 40.9 L 720.0 40.2 L 723.0 39.6 L 726.0 38.9 L 729.0 38.3 L 732.0 37.7 L 735.0 37.0 L 738.0 36.4 L 741.0 35.9 L 744.0 35.3 L 747.0 34.7 L 750.0 34.2 L 753.0 33.7 L 756.0 33.1 L 759.0 32.6 L 762.0 32.1 L 765.0 31.7 L 768.0 31.2 L 771.0 30.8 L 774.0 30.3 L 777.0 29.9 L 780.0 29.5 L 783.0 29.1 L 786.0 28.8 L 789.0 28.4 L 792.0 28.1 L 795.0 27.7 L 798.0 27.4 L 801.0 27.1 L 804.0 26.9 L 807.0 26.6 L 810.0 26.3 L 813.0 26.1 L 816.0 25.9 L 819.0 25.7 L 822.0 25.5 L 825.0 25.3 L 828.0 25.2 L 831.0 25.1 L 834.0 24.9 L 837.0 24.8 L 840.0 24.8 L 843.0 24.7 L 846.0 24.6 L 849.0 24.6 L 852.0 24.6 L 855.0 24.6 L 858.0 24.6 L 861.0 24.6 L 864.0 24.6 L 867.0 24.7 L 870.0 24.8 L 873.0 24.9 L 876.0 25.0 L 879.0 25.1 L 882.0 25.3 L 885.0 25.4 L 888.0 25.6 L 891.0 25.8 L 894.0 26.0 L 897.0 26.2 L 900.0 26.4 L 903.0 26.7 L 906.0 27.0 L 909.0 27.3 L 912.0 27.6 L 915.0 27.9 L 918.0 28.2 L 921.0 28.6 L 924.0 28.9 L 927.0 29.3 L 930.0 29.7 L 933.0 30.1 L 936.0 30.5 L 939.0 31.0 L 942.0 31.4 L 945.0 31.9 L 948.0 32.3 L 951.0 32.8 L 954.0 33.4 L 957.0 33.9 L 960.0 34.4 L 963.0 35.0 L 966.0 35.5 L 969.0 36.1 L 972.0 36.7 L 975.0 37.3 L 978.0 37.9 L 981.0 38.5 L 984.0 39.2 L 987.0 39.8 L 990.0 40.5 L 993.0 41.2 L 996.0 41.9 L 999.0 42.6 L 1002.0 43.3 L 1005.0 44.0 L 1008.0 44.7 L 1011.0 45.5 L 1014.0 46.2 L 1017.0 47.0 L 1020.0 47.8 L 1023.0 48.6 L 1026.0 49.4 L 1029.0 50.2 L 1032.0 51.0 L 1035.0 51.8 L 1038.0 52.7 L 1041.0 53.5 L 1044.0 54.4 L 1047.0 55.2 L 1050.0 56.1 L 1053.0 57.0 L 1056.0 57.8 L 1059.0 58.7 L 1062.0 59.6 L 1065.0 60.5 L 1068.0 61.4 L 1071.0 62.3 L 1074.0 63.3 L 1077.0 64.2 L 1080.0 65.1 L 1083.0 66.1 L 1086.0 67.0 L 1089.0 68.0 L 1092.0 68.9 L 1095.0 69.9 L 1098.0 70.8 L 1101.0 71.8 L 1104.0 72.8 L 1107.0 73.7 L 1110.0 74.7 L 1113.0 75.7 L 1116.0 76.7 L 1119.0 77.6 L 1122.0 78.6 L 1125.0 79.6 L 1128.0 80.6 L 1131.0 81.6 L 1134.0 82.6 L 1137.0 83.6 L 1140.0 84.5" fill="none" stroke="url(#bm3g9)" stroke-width="31.94"/></pattern><filter id="bm3g11" x="-30%" y="-30%" width="160%" height="160%"><feTurbulence type="fractalNoise" baseFrequency="0.1292" numOctaves="5" result="noise"/><feDisplacementMap in="SourceGraphic" in2="noise" scale="161.0" xChannelSelector="R" yChannelSelector="G" result="disp"/></filter><filter id="bm3g12" x="-30%" y="-30%" width="160%" height="160%"><feTurbulence type="fractalNoise" baseFrequency="0.0449" numOctaves="4" result="noise"/><feDisplacementMap in="SourceGraphic" in2="noise" scale="44.3" xChannelSelector="R" yChannelSelector="G" result="disp"/><feColorMatrix in="disp" type="hueRotate" values="313.8" result="hued"/><feColorMatrix in="hued" type="saturate" values="1.15" result="sat"/></filter><radialGradient id="bm3g13" cx="1380.0" cy="466.8" r="983.2" gradientUnits="userSpaceOnUse"><stop offset="0%" stop-color="white"/><stop offset="100%" stop-color="black"/></radialGradient><mask id="bm3g14"><rect x="-1920" y="-1080" width="5760" height="3240" fill="url(#bm3g13)"/></mask><linearGradient id="bm3g15" x1="67.5201647672382%" y1="3.170054169059461%" x2="32.4798352327618%" y2="96.82994583094053%"><stop offset="0%" stop-color="hsla(232.0,10.0%,5.0%,0.594)"/><stop offset="100%" stop-color="hsla(232.0,10.0%,5.0%,0.594)"/></linearGradient><filter id="bm3g17" x="-30%" y="-30%" width="160%" height="160%"><feTurbulence type="fractalNoise" baseFrequency="0.1289" numOctaves="6" result="noise"/><feDisplacementMap in="SourceGraphic" in2="noise" scale="124.5" xChannelSelector="R" yChannelSelector="G" result="disp"/></filter></defs><rect width="1920" height="1080" fill="url(#bm3g1)"/><g opacity="0.877" style="mix-blend-mode:screen" filter="url(#bm3g4)" ><rect x="-1920" y="-1080" width="5760" height="3240" fill="url(#bm3g3)"/></g><g  mask="url(#bm3g6)"><g transform="translate(1843.51,218.10) rotate(184.13) scale(1.475,1.835)" fill="hsla(232.0,10.0%,5.0%,0.631)" stroke="hsla(268.2,100.0%,39.7%,0.381)" stroke-width="1.16" opacity="0.561" style="mix-blend-mode:normal"><rect x="-154.87" y="-111.73" width="309.75" height="223.45" rx="211.94"/></g></g><g filter="url(#bm3g8)" ><g transform="translate(842.42,474.28) rotate(241.64) scale(0.515,1.527)" fill="url(#bm3g7)" stroke="hsla(343.4,82.3%,95.0%,0.583)" stroke-width="14.93" opacity="0.986" style="mix-blend-mode:color-dodge"><ellipse cx="0" cy="0" rx="274.10" ry="567.00"/></g><g transform="translate(844.65,475.53) rotate(242.06) scale(0.515,1.527)" fill="url(#bm3g7)" stroke="hsla(343.4,82.3%,95.0%,0.583)" stroke-width="14.93" opacity="0.986" style="mix-blend-mode:color-dodge"><ellipse cx="0" cy="0" rx="274.10" ry="567.00"/></g><g transform="translate(846.88,476.79) rotate(242.48) scale(0.515,1.527)" fill="url(#bm3g7)" stroke="hsla(343.4,82.3%,95.0%,0.583)" stroke-width="14.93" opacity="0.986" style="mix-blend-mode:color-dodge"><ellipse cx="0" cy="0" rx="274.10" ry="567.00"/></g><g transform="translate(849.11,478.04) rotate(242.90) scale(0.515,1.527)" fill="url(#bm3g7)" stroke="hsla(343.4,82.3%,95.0%,0.583)" stroke-width="14.93" opacity="0.986" style="mix-blend-mode:color-dodge"><ellipse cx="0" cy="0" rx="274.10" ry="567.00"/></g><g transform="translate(851.34,479.30) rotate(243.32) scale(0.515,1.527)" fill="url(#bm3g7)" stroke="hsla(343.4,82.3%,95.0%,0.583)" stroke-width="14.93" opacity="0.986" style="mix-blend-mode:color-dodge"><ellipse cx="0" cy="0" rx="274.10" ry="567.00"/></g><g transform="translate(853.58,480.56) rotate(243.73) scale(0.515,1.527)" fill="url(#bm3g7)" stroke="hsla(343.4,82.3%,95.0%,0.583)" stroke-width="14.93" opacity="0.986" style="mix-blend-mode:color-dodge"><ellipse cx="0" cy="0" rx="274.10" ry="567.00"/></g><g transform="translate(855.81,481.81) rotate(244.15) scale(0.515,1.527)" fill="url(#bm3g7)" stroke="hsla(343.4,82.3%,95.0%,0.583)" stroke-width="14.93" opacity="0.986" style="mix-blend-mode:color-dodge"><ellipse cx="0" cy="0" rx="274.10" ry="567.00"/></g><g transform="translate(858.04,483.07) rotate(244.57) scale(0.515,1.527)" fill="url(#bm3g7)" stroke="hsla(343.4,82.3%,95.0%,0.583)" stroke-width="14.93" opacity="0.986" style="mix-blend-mode:color-dodge"><ellipse cx="0" cy="0" rx="274.10" ry="567.00"/></g><g transform="translate(860.27,484.32) rotate(244.99) scale(0.515,1.527)" fill="url(#bm3g7)" stroke="hsla(343.4,82.3%,95.0%,0.583)" stroke-width="14.93" opacity="0.986" style="mix-blend-mode:color-dodge"><ellipse cx="0" cy="0" rx="274.10" ry="567.00"/></g><g transform="translate(862.51,485.58) rotate(245.41) scale(0.515,1.527)" fill="url(#bm3g7)" stroke="hsla(343.4,82.3%,95.0%,0.583)" stroke-width="14.93" opacity="0.986" style="mix-blend-mode:color-dodge"><ellipse cx="0" cy="0" rx="274.10" ry="567.00"/></g><g transform="translate(864.74,486.83) rotate(245.83) scale(0.515,1.527)" fill="url(#bm3g7)" stroke="hsla(343.4,82.3%,95.0%,0.583)" stroke-width="14.93" opacity="0.986" style="mix-blend-mode:color-dodge"><ellipse cx="0" cy="0" rx="274.10" ry="567.00"/></g><g transform="translate(866.97,488.09) rotate(246.25) scale(0.515,1.527)" fill="url(#bm3g7)" stroke="hsla(343.4,82.3%,95.0%,0.583)" stroke-width="14.93" opacity="0.986" style="mix-blend-mode:color-dodge"><ellipse cx="0" cy="0" rx="274.10" ry="567.00"/></g></g><g transform="translate(1044.82,686.58) rotate(73.58) scale(1.967,1.804)" fill="hsla(343.4,82.3%,95.0%,0.885)" stroke="hsla(268.2,100.0%,39.7%,0.171)" stroke-width="24.33" opacity="0.885" style="mix-blend-mode:multiply"><polygon points="0.00,-425.53 368.52,212.76 -368.52,212.76"/></g><g transform="translate(970.76,840.37) rotate(125.00) scale(1.967,1.804)" fill="hsla(343.4,82.3%,95.0%,0.885)" stroke="hsla(268.2,100.0%,39.7%,0.171)" stroke-width="24.33" opacity="0.885" style="mix-blend-mode:multiply"><polygon points="0.00,-425.53 368.52,212.76 -368.52,212.76"/></g><g transform="translate(804.34,878.36) rotate(176.43) scale(1.967,1.804)" fill="hsla(343.4,82.3%,95.0%,0.885)" stroke="hsla(268.2,100.0%,39.7%,0.171)" stroke-width="24.33" opacity="0.885" style="mix-blend-mode:multiply"><polygon points="0.00,-425.53 368.52,212.76 -368.52,212.76"/></g><g transform="translate(670.88,771.93) rotate(227.86) scale(1.967,1.804)" fill="hsla(343.4,82.3%,95.0%,0.885)" stroke="hsla(268.2,100.0%,39.7%,0.171)" stroke-width="24.33" opacity="0.885" style="mix-blend-mode:multiply"><polygon points="0.00,-425.53 368.52,212.76 -368.52,212.76"/></g><g transform="translate(670.88,601.23) rotate(279.29) scale(1.967,1.804)" fill="hsla(343.4,82.3%,95.0%,0.885)" stroke="hsla(268.2,100.0%,39.7%,0.171)" stroke-width="24.33" opacity="0.885" style="mix-blend-mode:multiply"><polygon points="0.00,-425.53 368.52,212.76 -368.52,212.76"/></g><g transform="translate(804.34,494.80) rotate(330.72) scale(1.967,1.804)" fill="hsla(343.4,82.3%,95.0%,0.885)" stroke="hsla(268.2,100.0%,39.7%,0.171)" stroke-width="24.33" opacity="0.885" style="mix-blend-mode:multiply"><polygon points="0.00,-425.53 368.52,212.76 -368.52,212.76"/></g><g transform="translate(970.76,532.78) rotate(382.15) scale(1.967,1.804)" fill="hsla(343.4,82.3%,95.0%,0.885)" stroke="hsla(268.2,100.0%,39.7%,0.171)" stroke-width="24.33" opacity="0.885" style="mix-blend-mode:multiply"><polygon points="0.00,-425.53 368.52,212.76 -368.52,212.76"/></g><g opacity="1.000" style="mix-blend-mode:color-dodge" filter="url(#bm3g11)" ><rect x="-1920" y="-1080" width="5760" height="3240" fill="url(#bm3g10)"/></g><g filter="url(#bm3g12)" mask="url(#bm3g14)"><g transform="translate(1487.55,837.17) rotate(463.91) scale(1.449,1.454)" fill="hsla(337.0,67.5%,9.7%,0.370)" stroke="hsla(343.4,82.3%,95.0%,0.632)" stroke-width="31.05" opacity="0.759" style="mix-blend-mode:hard-light"><rect x="-312.50" y="-286.69" width="625.01" height="573.39" rx="109.52"/></g><g transform="translate(1489.78,838.42) rotate(464.32) scale(1.449,1.454)" fill="hsla(337.0,67.5%,9.7%,0.370)" stroke="hsla(343.4,82.3%,95.0%,0.632)" stroke-width="31.05" opacity="0.759" style="mix-blend-mode:hard-light"><rect x="-312.50" y="-286.69" width="625.01" height="573.39" rx="109.52"/></g><g transform="translate(1492.02,839.68) rotate(464.74) scale(1.449,1.454)" fill="hsla(337.0,67.5%,9.7%,0.370)" stroke="hsla(343.4,82.3%,95.0%,0.632)" stroke-width="31.05" opacity="0.759" style="mix-blend-mode:hard-light"><rect x="-312.50" y="-286.69" width="625.01" height="573.39" rx="109.52"/></g><g transform="translate(1494.25,840.93) rotate(465.16) scale(1.449,1.454)" fill="hsla(337.0,67.5%,9.7%,0.370)" stroke="hsla(343.4,82.3%,95.0%,0.632)" stroke-width="31.05" opacity="0.759" style="mix-blend-mode:hard-light"><rect x="-312.50" y="-286.69" width="625.01" height="573.39" rx="109.52"/></g><g transform="translate(1496.48,842.19) rotate(465.58) scale(1.449,1.454)" fill="hsla(337.0,67.5%,9.7%,0.370)" stroke="hsla(343.4,82.3%,95.0%,0.632)" stroke-width="31.05" opacity="0.759" style="mix-blend-mode:hard-light"><rect x="-312.50" y="-286.69" width="625.01" height="573.39" rx="109.52"/></g><g transform="translate(1498.71,843.44) rotate(466.00) scale(1.449,1.454)" fill="hsla(337.0,67.5%,9.7%,0.370)" stroke="hsla(343.4,82.3%,95.0%,0.632)" stroke-width="31.05" opacity="0.759" style="mix-blend-mode:hard-light"><rect x="-312.50" y="-286.69" width="625.01" height="573.39" rx="109.52"/></g><g transform="translate(1500.94,844.70) rotate(466.42) scale(1.449,1.454)" fill="hsla(337.0,67.5%,9.7%,0.370)" stroke="hsla(343.4,82.3%,95.0%,0.632)" stroke-width="31.05" opacity="0.759" style="mix-blend-mode:hard-light"><rect x="-312.50" y="-286.69" width="625.01" height="573.39" rx="109.52"/></g><g transform="translate(1503.18,845.96) rotate(466.84) scale(1.449,1.454)" fill="hsla(337.0,67.5%,9.7%,0.370)" stroke="hsla(343.4,82.3%,95.0%,0.632)" stroke-width="31.05" opacity="0.759" style="mix-blend-mode:hard-light"><rect x="-312.50" y="-286.69" width="625.01" height="573.39" rx="109.52"/></g><g transform="translate(1505.41,847.21) rotate(467.25) scale(1.449,1.454)" fill="hsla(337.0,67.5%,9.7%,0.370)" stroke="hsla(343.4,82.3%,95.0%,0.632)" stroke-width="31.05" opacity="0.759" style="mix-blend-mode:hard-light"><rect x="-312.50" y="-286.69" width="625.01" height="573.39" rx="109.52"/></g><g transform="translate(1507.64,848.47) rotate(467.67) scale(1.449,1.454)" fill="hsla(337.0,67.5%,9.7%,0.370)" stroke="hsla(343.4,82.3%,95.0%,0.632)" stroke-width="31.05" opacity="0.759" style="mix-blend-mode:hard-light"><rect x="-312.50" y="-286.69" width="625.01" height="573.39" rx="109.52"/></g><g transform="translate(1509.87,849.72) rotate(468.09) scale(1.449,1.454)" fill="hsla(337.0,67.5%,9.7%,0.370)" stroke="hsla(343.4,82.3%,95.0%,0.632)" stroke-width="31.05" opacity="0.759" style="mix-blend-mode:hard-light"><rect x="-312.50" y="-286.69" width="625.01" height="573.39" rx="109.52"/></g></g><g opacity="0.941" style="mix-blend-mode:overlay" filter="url(#bm3g17)" ><g><polygon points="-2040.24,-1570.58 -2040.24,-1374.26 -2210.26,-1276.10 -2380.28,-1374.26 -2380.28,-1570.58 -2210.26,-1668.74" fill="url(#bm3g15)" stroke="url(#bm3g15)" stroke-width="0.30"/><polygon points="-1700.20,-1570.58 -1700.20,-1374.26 -1870.22,-1276.10 -2040.24,-1374.26 -2040.24,-1570.58 -1870.22,-1668.74" fill="url(#bm3g15)" stroke="url(#bm3g15)" stroke-width="0.30"/><polygon points="-1360.16,-1570.58 -1360.16,-1374.26 -1530.18,-1276.10 -1700.20,-1374.26 -1700.20,-1570.58 -1530.18,-1668.74" fill="url(#bm3g15)" stroke="url(#bm3g15)" stroke-width="0.30"/><polygon points="-1020.12,-1570.58 -1020.12,-1374.26 -1190.14,-1276.10 -1360.16,-1374.26 -1360.16,-1570.58 -1190.14,-1668.74" fill="url(#bm3g15)" stroke="url(#bm3g15)" stroke-width="0.30"/><polygon points="-680.08,-1570.58 -680.08,-1374.26 -850.10,-1276.10 -1020.12,-1374.26 -1020.12,-1570.58 -850.10,-1668.74" fill="url(#bm3g15)" stroke="url(#bm3g15)" stroke-width="0.30"/><polygon points="-340.04,-1570.58 -340.04,-1374.26 -510.06,-1276.10 -680.08,-1374.26 -680.08,-1570.58 -510.06,-1668.74" fill="url(#bm3g15)" stroke="url(#bm3g15)" stroke-width="0.30"/><polygon points="0.00,-1570.58 0.00,-1374.26 -170.02,-1276.10 -340.04,-1374.26 -340.04,-1570.58 -170.02,-1668.74" fill="url(#bm3g15)" stroke="url(#bm3g15)" stroke-width="0.30"/><polygon points="340.04,-1570.58 340.04,-1374.26 170.02,-1276.10 -0.00,-1374.26 0.00,-1570.58 170.02,-1668.74" fill="url(#bm3g15)" stroke="url(#bm3g15)" stroke-width="0.30"/><polygon points="680.08,-1570.58 680.08,-1374.26 510.06,-1276.10 340.04,-1374.26 340.04,-1570.58 510.06,-1668.74" fill="url(#bm3g15)" stroke="url(#bm3g15)" stroke-width="0.30"/><polygon points="1020.12,-1570.58 1020.12,-1374.26 850.10,-1276.10 680.08,-1374.26 680.08,-1570.58 850.10,-1668.74" fill="url(#bm3g15)" stroke="url(#bm3g15)" stroke-width="0.30"/><polygon points="1360.16,-1570.58 1360.16,-1374.26 1190.14,-1276.10 1020.12,-1374.26 1020.12,-1570.58 1190.14,-1668.74" fill="url(#bm3g15)" stroke="url(#bm3g15)" stroke-width="0.30"/><polygon points="1700.20,-1570.58 1700.20,-1374.26 1530.18,-1276.10 1360.16,-1374.26 1360.16,-1570.58 1530.18,-1668.74" fill="url(#bm3g15)" stroke="url(#bm3g15)" stroke-width="0.30"/><polygon points="2040.24,-1570.58 2040.24,-1374.26 1870.22,-1276.10 1700.20,-1374.26 1700.20,-1570.58 1870.22,-1668.74" fill="url(#bm3g15)" stroke="url(#bm3g15)" stroke-width="0.30"/><polygon points="2380.28,-1570.58 2380.28,-1374.26 2210.26,-1276.10 2040.24,-1374.26 2040.24,-1570.58 2210.26,-1668.74" fill="url(#bm3g15)" stroke="url(#bm3g15)" stroke-width="0.30"/><polygon points="2720.32,-1570.58 2720.32,-1374.26 2550.30,-1276.10 2380.28,-1374.26 2380.28,-1570.58 2550.30,-1668.74" fill="url(#bm3g15)" stroke="url(#bm3g15)" stroke-width="0.30"/><polygon points="3060.36,-1570.58 3060.36,-1374.26 2890.34,-1276.10 2720.32,-1374.26 2720.32,-1570.58 2890.34,-1668.74" fill="url(#bm3g15)" stroke="url(#bm3g15)" stroke-width="0.30"/><polygon points="3400.40,-1570.58 3400.40,-1374.26 3230.38,-1276.10 3060.36,-1374.26 3060.36,-1570.58 3230.38,-1668.74" fill="url(#bm3g15)" stroke="url(#bm3g15)" stroke-width="0.30"/><polygon points="3740.44,-1570.58 3740.44,-1374.26 3570.42,-1276.10 3400.40,-1374.26 3400.40,-1570.58 3570.42,-1668.74" fill="url(#bm3g15)" stroke="url(#bm3g15)" stroke-width="0.30"/><polygon points="4080.48,-1570.58 4080.48,-1374.26 3910.46,-1276.10 3740.44,-1374.26 3740.44,-1570.58 3910.46,-1668.74" fill="url(#bm3g15)" stroke="url(#bm3g15)" stroke-width="0.30"/><polygon points="4420.53,-1570.58 4420.53,-1374.26 4250.50,-1276.10 4080.48,-1374.26 4080.48,-1570.58 4250.50,-1668.74" fill="url(#bm3g15)" stroke="url(#bm3g15)" stroke-width="0.30"/><polygon points="-2210.26,-1276.10 -2210.26,-1079.77 -2380.28,-981.61 -2550.30,-1079.77 -2550.30,-1276.10 -2380.28,-1374.26" fill="url(#bm3g15)" stroke="url(#bm3g15)" stroke-width="0.30"/><polygon points="-1870.22,-1276.10 -1870.22,-1079.77 -2040.24,-981.61 -2210.26,-1079.77 -2210.26,-1276.10 -2040.24,-1374.26" fill="url(#bm3g15)" stroke="url(#bm3g15)" stroke-width="0.30"/><polygon points="-1530.18,-1276.10 -1530.18,-1079.77 -1700.20,-981.61 -1870.22,-1079.77 -1870.22,-1276.10 -1700.20,-1374.26" fill="url(#bm3g15)" stroke="url(#bm3g15)" stroke-width="0.30"/><polygon points="-1190.14,-1276.10 -1190.14,-1079.77 -1360.16,-981.61 -1530.18,-1079.77 -1530.18,-1276.10 -1360.16,-1374.26" fill="url(#bm3g15)" stroke="url(#bm3g15)" stroke-width="0.30"/><polygon points="-850.10,-1276.10 -850.10,-1079.77 -1020.12,-981.61 -1190.14,-1079.77 -1190.14,-1276.10 -1020.12,-1374.26" fill="url(#bm3g15)" stroke="url(#bm3g15)" stroke-width="0.30"/><polygon points="-510.06,-1276.10 -510.06,-1079.77 -680.08,-981.61 -850.10,-1079.77 -850.10,-1276.10 -680.08,-1374.26" fill="url(#bm3g15)" stroke="url(#bm3g15)" stroke-width="0.30"/><polygon points="-170.02,-1276.10 -170.02,-1079.77 -340.04,-981.61 -510.06,-1079.77 -510.06,-1276.10 -340.04,-1374.26" fill="url(#bm3g15)" stroke="url(#bm3g15)" stroke-width="0.30"/><polygon points="170.02,-1276.10 170.02,-1079.77 0.00,-981.61 -170.02,-1079.77 -170.02,-1276.10 -0.00,-1374.26" fill="url(#bm3g15)" stroke="url(#bm3g15)" stroke-width="0.30"/><polygon points="510.06,-1276.10 510.06,-1079.77 340.04,-981.61 170.02,-1079.77 170.02,-1276.10 340.04,-1374.26" fill="url(#bm3g15)" stroke="url(#bm3g15)" stroke-width="0.30"/><polygon points="850.10,-1276.10 850.10,-1079.77 680.08,-981.61 510.06,-1079.77 510.06,-1276.10 680.08,-1374.26" fill="url(#bm3g15)" stroke="url(#bm3g15)" stroke-width="0.30"/><polygon points="1190.14,-1276.10 1190.14,-1079.77 1020.12,-981.61 850.10,-1079.77 850.10,-1276.10 1020.12,-1374.26" fill="url(#bm3g15)" stroke="url(#bm3g15)" stroke-width="0.30"/><polygon points="1530.18,-1276.10 1530.18,-1079.77 1360.16,-981.61 1190.14,-1079.77 1190.14,-1276.10 1360.16,-1374.26" fill="url(#bm3g15)" stroke="url(#bm3g15)" stroke-width="0.30"/><polygon points="1870.22,-1276.10 1870.22,-1079.77 1700.20,-981.61 1530.18,-1079.77 1530.18,-1276.10 1700.20,-1374.26" fill="url(#bm3g15)" stroke="url(#bm3g15)" stroke-width="0.30"/><polygon points="2210.26,-1276.10 2210.26,-1079.77 2040.24,-981.61 1870.22,-1079.77 1870.22,-1276.10 2040.24,-1374.26" fill="url(#bm3g15)" stroke="url(#bm3g15)" stroke-width="0.30"/><polygon points="2550.30,-1276.10 2550.30,-1079.77 2380.28,-981.61 2210.26,-1079.77 2210.26,-1276.10 2380.28,-1374.26" fill="url(#bm3g15)" stroke="url(#bm3g15)" stroke-width="0.30"/><polygon points="2890.34,-1276.10 2890.34,-1079.77 2720.32,-981.61 2550.30,-1079.77 2550.30,-1276.10 2720.32,-1374.26" fill="url(#bm3g15)" stroke="url(#bm3g15)" stroke-width="0.30"/><polygon points="3230.38,-1276.10 3230.38,-1079.77 3060.36,-981.61 2890.34,-1079.77 2890.34,-1276.10 3060.36,-1374.26" fill="url(#bm3g15)" stroke="url(#bm3g15)" stroke-width="0.30"/><polygon points="3570.42,-1276.10 3570.42,-1079.77 3400.40,-981.61 3230.38,-1079.77 3230.38,-1276.10 3400.40,-1374.26" fill="url(#bm3g15)" stroke="url(#bm3g15)" stroke-width="0.30"/><polygon points="3910.46,-1276.10 3910.46,-1079.77 3740.44,-981.61 3570.42,-1079.77 3570.42,-1276.10 3740.44,-1374.26" fill="url(#bm3g15)" stroke="url(#bm3g15)" stroke-width="0.30"/><polygon points="4250.50,-1276.10 4250.50,-1079.77 4080.48,-981.61 3910.46,-1079.77 3910.46,-1276.10 4080.48,-1374.26" fill="url(#bm3g15)" stroke="url(#bm3g15)" stroke-width="0.30"/><polygon points="-2040.24,-981.61 -2040.24,-785.29 -2210.26,-687.13 -2380.28,-785.29 -2380.28,-981.61 -2210.26,-1079.77" fill="url(#bm3g15)" stroke="url(#bm3g15)" stroke-width="0.30"/><polygon points="-1700.20,-981.61 -1700.20,-785.29 -1870.22,-687.13 -2040.24,-785.29 -2040.24,-981.61 -1870.22,-1079.77" fill="url(#bm3g15)" stroke="url(#bm3g15)" stroke-width="0.30"/><polygon points="-1360.16,-981.61 -1360.16,-785.29 -1530.18,-687.13 -1700.20,-785.29 -1700.20,-981.61 -1530.18,-1079.77" fill="url(#bm3g15)" stroke="url(#bm3g15)" stroke-width="0.30"/><polygon points="-1020.12,-981.61 -1020.12,-785.29 -1190.14,-687.13 -1360.16,-785.29 -1360.16,-981.61 -1190.14,-1079.77" fill="url(#bm3g15)" stroke="url(#bm3g15)" stroke-width="0.30"/><polygon points="-680.08,-981.61 -680.08,-785.29 -850.10,-687.13 -1020.12,-785.29 -1020.12,-981.61 -850.10,-1079.77" fill="url(#bm3g15)" stroke="url(#bm3g15)" stroke-width="0.30"/><polygon points="-340.04,-981.61 -340.04,-785.29 -510.06,-687.13 -680.08,-785.29 -680.08,-981.61 -510.06,-1079.77" fill="url(#bm3g15)" stroke="url(#bm3g15)" stroke-width="0.30"/><polygon points="0.00,-981.61 0.00,-785.29 -170.02,-687.13 -340.04,-785.29 -340.04,-981.61 -170.02,-1079.77" fill="url(#bm3g15)" stroke="url(#bm3g15)" stroke-width="0.30"/><polygon points="340.04,-981.61 340.04,-785.29 170.02,-687.13 -0.00,-785.29 0.00,-981.61 170.02,-1079.77" fill="url(#bm3g15)" stroke="url(#bm3g15)" stroke-width="0.30"/><polygon points="680.08,-981.61 680.08,-785.29 510.06,-687.13 340.04,-785.29 340.04,-981.61 510.06,-1079.77" fill="url(#bm3g15)" stroke="url(#bm3g15)" stroke-width="0.30"/><polygon points="1020.12,-981.61 1020.12,-785.29 850.10,-687.13 680.08,-785.29 680.08,-981.61 850.10,-1079.77" fill="url(#bm3g15)" stroke="url(#bm3g15)" stroke-width="0.30"/><polygon points="1360.16,-981.61 1360.16,-785.29 1190.14,-687.13 1020.12,-785.29 1020.12,-981.61 1190.14,-1079.77" fill="url(#bm3g15)" stroke="url(#bm3g15)" stroke-width="0.30"/><polygon points="1700.20,-981.61 1700.20,-785.29 1530.18,-687.13 1360.16,-785.29 1360.16,-981.61 1530.18,-1079.77" fill="url(#bm3g15)" stroke="url(#bm3g15)" stroke-width="0.30"/><polygon points="2040.24,-981.61 2040.24,-785.29 1870.22,-687.13 1700.20,-785.29 1700.20,-981.61 1870.22,-1079.77" fill="url(#bm3g15)" stroke="url(#bm3g15)" stroke-width="0.30"/><polygon points="2380.28,-981.61 2380.28,-785.29 2210.26,-687.13 2040.24,-785.29 2040.24,-981.61 2210.26,-1079.77" fill="url(#bm3g15)" stroke="url(#bm3g15)" stroke-width="0.30"/><polygon points="2720.32,-981.61 2720.32,-785.29 2550.30,-687.13 2380.28,-785.29 2380.28,-981.61 2550.30,-1079.77" fill="url(#bm3g15)" stroke="url(#bm3g15)" stroke-width="0.30"/><polygon points="3060.36,-981.61 3060.36,-785.29 2890.34,-687.13 2720.32,-785.29 2720.32,-981.61 2890.34,-1079.77" fill="url(#bm3g15)" stroke="url(#bm3g15)" stroke-width="0.30"/><polygon points="3400.40,-981.61 3400.40,-785.29 3230.38,-687.13 3060.36,-785.29 3060.36,-981.61 3230.38,-1079.77" fill="url(#bm3g15)" stroke="url(#bm3g15)" stroke-width="0.30"/><polygon points="3740.44,-981.61 3740.44,-785.29 3570.42,-687.13 3400.40,-785.29 3400.40,-981.61 3570.42,-1079.77" fill="url(#bm3g15)" stroke="url(#bm3g15)" stroke-width="0.30"/><polygon points="4080.48,-981.61 4080.48,-785.29 3910.46,-687.13 3740.44,-785.29 3740.44,-981.61 3910.46,-1079.77" fill="url(#bm3g15)" stroke="url(#bm3g15)" stroke-width="0.30"/><polygon points="4420.53,-981.61 4420.53,-785.29 4250.50,-687.13 4080.48,-785.29 4080.48,-981.61 4250.50,-1079.77" fill="url(#bm3g15)" stroke="url(#bm3g15)" stroke-width="0.30"/><polygon points="-2210.26,-687.13 -2210.26,-490.81 -2380.28,-392.64 -2550.30,-490.81 -2550.30,-687.13 -2380.28,-785.29" fill="url(#bm3g15)" stroke="url(#bm3g15)" stroke-width="0.30"/><polygon points="-1870.22,-687.13 -1870.22,-490.81 -2040.24,-392.64 -2210.26,-490.81 -2210.26,-687.13 -2040.24,-785.29" fill="url(#bm3g15)" stroke="url(#bm3g15)" stroke-width="0.30"/><polygon points="-1530.18,-687.13 -1530.18,-490.81 -1700.20,-392.64 -1870.22,-490.81 -1870.22,-687.13 -1700.20,-785.29" fill="url(#bm3g15)" stroke="url(#bm3g15)" stroke-width="0.30"/><polygon points="-1190.14,-687.13 -1190.14,-490.81 -1360.16,-392.64 -1530.18,-490.81 -1530.18,-687.13 -1360.16,-785.29" fill="url(#bm3g15)" stroke="url(#bm3g15)" stroke-width="0.30"/><polygon points="-850.10,-687.13 -850.10,-490.81 -1020.12,-392.64 -1190.14,-490.81 -1190.14,-687.13 -1020.12,-785.29" fill="url(#bm3g15)" stroke="url(#bm3g15)" stroke-width="0.30"/><polygon points="-510.06,-687.13 -510.06,-490.81 -680.08,-392.64 -850.10,-490.81 -850.10,-687.13 -680.08,-785.29" fill="url(#bm3g15)" stroke="url(#bm3g15)" stroke-width="0.30"/><polygon points="-170.02,-687.13 -170.02,-490.81 -340.04,-392.64 -510.06,-490.81 -510.06,-687.13 -340.04,-785.29" fill="url(#bm3g15)" stroke="url(#bm3g15)" stroke-width="0.30"/><polygon points="170.02,-687.13 170.02,-490.81 0.00,-392.64 -170.02,-490.81 -170.02,-687.13 -0.00,-785.29" fill="url(#bm3g15)" stroke="url(#bm3g15)" stroke-width="0.30"/><polygon points="510.06,-687.13 510.06,-490.81 340.04,-392.64 170.02,-490.81 170.02,-687.13 340.04,-785.29" fill="url(#bm3g15)" stroke="url(#bm3g15)" stroke-width="0.30"/><polygon points="850.10,-687.13 850.10,-490.81 680.08,-392.64 510.06,-490.81 510.06,-687.13 680.08,-785.29" fill="url(#bm3g15)" stroke="url(#bm3g15)" stroke-width="0.30"/><polygon points="1190.14,-687.13 1190.14,-490.81 1020.12,-392.64 850.10,-490.81 850.10,-687.13 1020.12,-785.29" fill="url(#bm3g15)" stroke="url(#bm3g15)" stroke-width="0.30"/><polygon points="1530.18,-687.13 1530.18,-490.81 1360.16,-392.64 1190.14,-490.81 1190.14,-687.13 1360.16,-785.29" fill="url(#bm3g15)" stroke="url(#bm3g15)" stroke-width="0.30"/><polygon points="1870.22,-687.13 1870.22,-490.81 1700.20,-392.64 1530.18,-490.81 1530.18,-687.13 1700.20,-785.29" fill="url(#bm3g15)" stroke="url(#bm3g15)" stroke-width="0.30"/><polygon points="2210.26,-687.13 2210.26,-490.81 2040.24,-392.64 1870.22,-490.81 1870.22,-687.13 2040.24,-785.29" fill="url(#bm3g15)" stroke="url(#bm3g15)" stroke-width="0.30"/><polygon points="2550.30,-687.13 2550.30,-490.81 2380.28,-392.64 2210.26,-490.81 2210.26,-687.13 2380.28,-785.29" fill="url(#bm3g15)" stroke="url(#bm3g15)" stroke-width="0.30"/><polygon points="2890.34,-687.13 2890.34,-490.81 2720.32,-392.64 2550.30,-490.81 2550.30,-687.13 2720.32,-785.29" fill="url(#bm3g15)" stroke="url(#bm3g15)" stroke-width="0.30"/><polygon points="3230.38,-687.13 3230.38,-490.81 3060.36,-392.64 2890.34,-490.81 2890.34,-687.13 3060.36,-785.29" fill="url(#bm3g15)" stroke="url(#bm3g15)" stroke-width="0.30"/><polygon points="3570.42,-687.13 3570.42,-490.81 3400.40,-392.64 3230.38,-490.81 3230.38,-687.13 3400.40,-785.29" fill="url(#bm3g15)" stroke="url(#bm3g15)" stroke-width="0.30"/><polygon points="3910.46,-687.13 3910.46,-490.81 3740.44,-392.64 3570.42,-490.81 3570.42,-687.13 3740.44,-785.29" fill="url(#bm3g15)" stroke="url(#bm3g15)" stroke-width="0.30"/><polygon points="4250.50,-687.13 4250.50,-490.81 4080.48,-392.64 3910.46,-490.81 3910.46,-687.13 4080.48,-785.29" fill="url(#bm3g15)" stroke="url(#bm3g15)" stroke-width="0.30"/><polygon points="-2040.24,-392.64 -2040.24,-196.32 -2210.26,-98.16 -2380.28,-196.32 -2380.28,-392.64 -2210.26,-490.81" fill="url(#bm3g15)" stroke="url(#bm3g15)" stroke-width="0.30"/><polygon points="-1700.20,-392.64 -1700.20,-196.32 -1870.22,-98.16 -2040.24,-196.32 -2040.24,-392.64 -1870.22,-490.81" fill="url(#bm3g15)" stroke="url(#bm3g15)" stroke-width="0.30"/><polygon points="-1360.16,-392.64 -1360.16,-196.32 -1530.18,-98.16 -1700.20,-196.32 -1700.20,-392.64 -1530.18,-490.81" fill="url(#bm3g15)" stroke="url(#bm3g15)" stroke-width="0.30"/><polygon points="-1020.12,-392.64 -1020.12,-196.32 -1190.14,-98.16 -1360.16,-196.32 -1360.16,-392.64 -1190.14,-490.81" fill="url(#bm3g15)" stroke="url(#bm3g15)" stroke-width="0.30"/><polygon points="-680.08,-392.64 -680.08,-196.32 -850.10,-98.16 -1020.12,-196.32 -1020.12,-392.64 -850.10,-490.81" fill="url(#bm3g15)" stroke="url(#bm3g15)" stroke-width="0.30"/><polygon points="-340.04,-392.64 -340.04,-196.32 -510.06,-98.16 -680.08,-196.32 -680.08,-392.64 -510.06,-490.81" fill="url(#bm3g15)" stroke="url(#bm3g15)" stroke-width="0.30"/><polygon points="0.00,-392.64 0.00,-196.32 -170.02,-98.16 -340.04,-196.32 -340.04,-392.64 -170.02,-490.81" fill="url(#bm3g15)" stroke="url(#bm3g15)" stroke-width="0.30"/><polygon points="340.04,-392.64 340.04,-196.32 170.02,-98.16 -0.00,-196.32 0.00,-392.64 170.02,-490.81" fill="url(#bm3g15)" stroke="url(#bm3g15)" stroke-width="0.30"/><polygon points="680.08,-392.64 680.08,-196.32 510.06,-98.16 340.04,-196.32 340.04,-392.64 510.06,-490.81" fill="url(#bm3g15)" stroke="url(#bm3g15)" stroke-width="0.30"/><polygon points="1020.12,-392.64 1020.12,-196.32 850.10,-98.16 680.08,-196.32 680.08,-392.64 850.10,-490.81" fill="url(#bm3g15)" stroke="url(#bm3g15)" stroke-width="0.30"/><polygon points="1360.16,-392.64 1360.16,-196.32 1190.14,-98.16 1020.12,-196.32 1020.12,-392.64 1190.14,-490.81" fill="url(#bm3g15)" stroke="url(#bm3g15)" stroke-width="0.30"/><polygon points="1700.20,-392.64 1700.20,-196.32 1530.18,-98.16 1360.16,-196.32 1360.16,-392.64 1530.18,-490.81" fill="url(#bm3g15)" stroke="url(#bm3g15)" stroke-width="0.30"/><polygon points="2040.24,-392.64 2040.24,-196.32 1870.22,-98.16 1700.20,-196.32 1700.20,-392.64 1870.22,-490.81" fill="url(#bm3g15)" stroke="url(#bm3g15)" stroke-width="0.30"/><polygon points="2380.28,-392.64 2380.28,-196.32 2210.26,-98.16 2040.24,-196.32 2040.24,-392.64 2210.26,-490.81" fill="url(#bm3g15)" stroke="url(#bm3g15)" stroke-width="0.30"/><polygon points="2720.32,-392.64 2720.32,-196.32 2550.30,-98.16 2380.28,-196.32 2380.28,-392.64 2550.30,-490.81" fill="url(#bm3g15)" stroke="url(#bm3g15)" stroke-width="0.30"/><polygon points="3060.36,-392.64 3060.36,-196.32 2890.34,-98.16 2720.32,-196.32 2720.32,-392.64 2890.34,-490.81" fill="url(#bm3g15)" stroke="url(#bm3g15)" stroke-width="0.30"/><polygon points="3400.40,-392.64 3400.40,-196.32 3230.38,-98.16 3060.36,-196.32 3060.36,-392.64 3230.38,-490.81" fill="url(#bm3g15)" stroke="url(#bm3g15)" stroke-width="0.30"/><polygon points="3740.44,-392.64 3740.44,-196.32 3570.42,-98.16 3400.40,-196.32 3400.40,-392.64 3570.42,-490.81" fill="url(#bm3g15)" stroke="url(#bm3g15)" stroke-width="0.30"/><polygon points="4080.48,-392.64 4080.48,-196.32 3910.46,-98.16 3740.44,-196.32 3740.44,-392.64 3910.46,-490.81" fill="url(#bm3g15)" stroke="url(#bm3g15)" stroke-width="0.30"/><polygon points="4420.53,-392.64 4420.53,-196.32 4250.50,-98.16 4080.48,-196.32 4080.48,-392.64 4250.50,-490.81" fill="url(#bm3g15)" stroke="url(#bm3g15)" stroke-width="0.30"/><polygon points="-2210.26,-98.16 -2210.26,98.16 -2380.28,196.32 -2550.30,98.16 -2550.30,-98.16 -2380.28,-196.32" fill="url(#bm3g15)" stroke="url(#bm3g15)" stroke-width="0.30"/><polygon points="-1870.22,-98.16 -1870.22,98.16 -2040.24,196.32 -2210.26,98.16 -2210.26,-98.16 -2040.24,-196.32" fill="url(#bm3g15)" stroke="url(#bm3g15)" stroke-width="0.30"/><polygon points="-1530.18,-98.16 -1530.18,98.16 -1700.20,196.32 -1870.22,98.16 -1870.22,-98.16 -1700.20,-196.32" fill="url(#bm3g15)" stroke="url(#bm3g15)" stroke-width="0.30"/><polygon points="-1190.14,-98.16 -1190.14,98.16 -1360.16,196.32 -1530.18,98.16 -1530.18,-98.16 -1360.16,-196.32" fill="url(#bm3g15)" stroke="url(#bm3g15)" stroke-width="0.30"/><polygon points="-850.10,-98.16 -850.10,98.16 -1020.12,196.32 -1190.14,98.16 -1190.14,-98.16 -1020.12,-196.32" fill="url(#bm3g15)" stroke="url(#bm3g15)" stroke-width="0.30"/><polygon points="-510.06,-98.16 -510.06,98.16 -680.08,196.32 -850.10,98.16 -850.10,-98.16 -680.08,-196.32" fill="url(#bm3g15)" stroke="url(#bm3g15)" stroke-width="0.30"/><polygon points="-170.02,-98.16 -170.02,98.16 -340.04,196.32 -510.06,98.16 -510.06,-98.16 -340.04,-196.32" fill="url(#bm3g15)" stroke="url(#bm3g15)" stroke-width="0.30"/><polygon points="170.02,-98.16 170.02,98.16 0.00,196.32 -170.02,98.16 -170.02,-98.16 -0.00,-196.32" fill="url(#bm3g15)" stroke="url(#bm3g15)" stroke-width="0.30"/><polygon points="510.06,-98.16 510.06,98.16 340.04,196.32 170.02,98.16 170.02,-98.16 340.04,-196.32" fill="url(#bm3g15)" stroke="url(#bm3g15)" stroke-width="0.30"/><polygon points="850.10,-98.16 850.10,98.16 680.08,196.32 510.06,98.16 510.06,-98.16 680.08,-196.32" fill="url(#bm3g15)" stroke="url(#bm3g15)" stroke-width="0.30"/><polygon points="1190.14,-98.16 1190.14,98.16 1020.12,196.32 850.10,98.16 850.10,-98.16 1020.12,-196.32" fill="url(#bm3g15)" stroke="url(#bm3g15)" stroke-width="0.30"/><polygon points="1530.18,-98.16 1530.18,98.16 1360.16,196.32 1190.14,98.16 1190.14,-98.16 1360.16,-196.32" fill="url(#bm3g15)" stroke="url(#bm3g15)" stroke-width="0.30"/><polygon points="1870.22,-98.16 1870.22,98.16 1700.20,196.32 1530.18,98.16 1530.18,-98.16 1700.20,-196.32" fill="url(#bm3g15)" stroke="url(#bm3g15)" stroke-width="0.30"/><polygon points="2210.26,-98.16 2210.26,98.16 2040.24,196.32 1870.22,98.16 1870.22,-98.16 2040.24,-196.32" fill="url(#bm3g15)" stroke="url(#bm3g15)" stroke-width="0.30"/><polygon points="2550.30,-98.16 2550.30,98.16 2380.28,196.32 2210.26,98.16 2210.26,-98.16 2380.28,-196.32" fill="url(#bm3g15)" stroke="url(#bm3g15)" stroke-width="0.30"/><polygon points="2890.34,-98.16 2890.34,98.16 2720.32,196.32 2550.30,98.16 2550.30,-98.16 2720.32,-196.32" fill="url(#bm3g15)" stroke="url(#bm3g15)" stroke-width="0.30"/><polygon points="3230.38,-98.16 3230.38,98.16 3060.36,196.32 2890.34,98.16 2890.34,-98.16 3060.36,-196.32" fill="url(#bm3g15)" stroke="url(#bm3g15)" stroke-width="0.30"/><polygon points="3570.42,-98.16 3570.42,98.16 3400.40,196.32 3230.38,98.16 3230.38,-98.16 3400.40,-196.32" fill="url(#bm3g15)" stroke="url(#bm3g15)" stroke-width="0.30"/><polygon points="3910.46,-98.16 3910.46,98.16 3740.44,196.32 3570.42,98.16 3570.42,-98.16 3740.44,-196.32" fill="url(#bm3g15)" stroke="url(#bm3g15)" stroke-width="0.30"/><polygon points="4250.50,-98.16 4250.50,98.16 4080.48,196.32 3910.46,98.16 3910.46,-98.16 4080.48,-196.32" fill="url(#bm3g15)" stroke="url(#bm3g15)" stroke-width="0.30"/><polygon points="-2040.24,196.32 -2040.24,392.64 -2210.26,490.81 -2380.28,392.64 -2380.28,196.32 -2210.26,98.16" fill="url(#bm3g15)" stroke="url(#bm3g15)" stroke-width="0.30"/><polygon points="-1700.20,196.32 -1700.20,392.64 -1870.22,490.81 -2040.24,392.64 -2040.24,196.32 -1870.22,98.16" fill="url(#bm3g15)" stroke="url(#bm3g15)" stroke-width="0.30"/><polygon points="-1360.16,196.32 -1360.16,392.64 -1530.18,490.81 -1700.20,392.64 -1700.20,196.32 -1530.18,98.16" fill="url(#bm3g15)" stroke="url(#bm3g15)" stroke-width="0.30"/><polygon points="-1020.12,196.32 -1020.12,392.64 -1190.14,490.81 -1360.16,392.64 -1360.16,196.32 -1190.14,98.16" fill="url(#bm3g15)" stroke="url(#bm3g15)" stroke-width="0.30"/><polygon points="-680.08,196.32 -680.08,392.64 -850.10,490.81 -1020.12,392.64 -1020.12,196.32 -850.10,98.16" fill="url(#bm3g15)" stroke="url(#bm3g15)" stroke-width="0.30"/><polygon points="-340.04,196.32 -340.04,392.64 -510.06,490.81 -680.08,392.64 -680.08,196.32 -510.06,98.16" fill="url(#bm3g15)" stroke="url(#bm3g15)" stroke-width="0.30"/><polygon points="0.00,196.32 0.00,392.64 -170.02,490.81 -340.04,392.64 -340.04,196.32 -170.02,98.16" fill="url(#bm3g15)" stroke="url(#bm3g15)" stroke-width="0.30"/><polygon points="340.04,196.32 340.04,392.64 170.02,490.81 -0.00,392.64 0.00,196.32 170.02,98.16" fill="url(#bm3g15)" stroke="url(#bm3g15)" stroke-width="0.30"/><polygon points="680.08,196.32 680.08,392.64 510.06,490.81 340.04,392.64 340.04,196.32 510.06,98.16" fill="url(#bm3g15)" stroke="url(#bm3g15)" stroke-width="0.30"/><polygon points="1020.12,196.32 1020.12,392.64 850.10,490.81 680.08,392.64 680.08,196.32 850.10,98.16" fill="url(#bm3g15)" stroke="url(#bm3g15)" stroke-width="0.30"/><polygon points="1360.16,196.32 1360.16,392.64 1190.14,490.81 1020.12,392.64 1020.12,196.32 1190.14,98.16" fill="url(#bm3g15)" stroke="url(#bm3g15)" stroke-width="0.30"/><polygon points="1700.20,196.32 1700.20,392.64 1530.18,490.81 1360.16,392.64 1360.16,196.32 1530.18,98.16" fill="url(#bm3g15)" stroke="url(#bm3g15)" stroke-width="0.30"/><polygon points="2040.24,196.32 2040.24,392.64 1870.22,490.81 1700.20,392.64 1700.20,196.32 1870.22,98.16" fill="url(#bm3g15)" stroke="url(#bm3g15)" stroke-width="0.30"/><polygon points="2380.28,196.32 2380.28,392.64 2210.26,490.81 2040.24,392.64 2040.24,196.32 2210.26,98.16" fill="url(#bm3g15)" stroke="url(#bm3g15)" stroke-width="0.30"/><polygon points="2720.32,196.32 2720.32,392.64 2550.30,490.81 2380.28,392.64 2380.28,196.32 2550.30,98.16" fill="url(#bm3g15)" stroke="url(#bm3g15)" stroke-width="0.30"/><polygon points="3060.36,196.32 3060.36,392.64 2890.34,490.81 2720.32,392.64 2720.32,196.32 2890.34,98.16" fill="url(#bm3g15)" stroke="url(#bm3g15)" stroke-width="0.30"/><polygon points="3400.40,196.32 3400.40,392.64 3230.38,490.81 3060.36,392.64 3060.36,196.32 3230.38,98.16" fill="url(#bm3g15)" stroke="url(#bm3g15)" stroke-width="0.30"/><polygon points="3740.44,196.32 3740.44,392.64 3570.42,490.81 3400.40,392.64 3400.40,196.32 3570.42,98.16" fill="url(#bm3g15)" stroke="url(#bm3g15)" stroke-width="0.30"/><polygon points="4080.48,196.32 4080.48,392.64 3910.46,490.81 3740.44,392.64 3740.44,196.32 3910.46,98.16" fill="url(#bm3g15)" stroke="url(#bm3g15)" stroke-width="0.30"/><polygon points="4420.53,196.32 4420.53,392.64 4250.50,490.81 4080.48,392.64 4080.48,196.32 4250.50,98.16" fill="url(#bm3g15)" stroke="url(#bm3g15)" stroke-width="0.30"/><polygon points="-2210.26,490.81 -2210.26,687.13 -2380.28,785.29 -2550.30,687.13 -2550.30,490.81 -2380.28,392.64" fill="url(#bm3g15)" stroke="url(#bm3g15)" stroke-width="0.30"/><polygon points="-1870.22,490.81 -1870.22,687.13 -2040.24,785.29 -2210.26,687.13 -2210.26,490.81 -2040.24,392.64" fill="url(#bm3g15)" stroke="url(#bm3g15)" stroke-width="0.30"/><polygon points="-1530.18,490.81 -1530.18,687.13 -1700.20,785.29 -1870.22,687.13 -1870.22,490.81 -1700.20,392.64" fill="url(#bm3g15)" stroke="url(#bm3g15)" stroke-width="0.30"/><polygon points="-1190.14,490.81 -1190.14,687.13 -1360.16,785.29 -1530.18,687.13 -1530.18,490.81 -1360.16,392.64" fill="url(#bm3g15)" stroke="url(#bm3g15)" stroke-width="0.30"/><polygon points="-850.10,490.81 -850.10,687.13 -1020.12,785.29 -1190.14,687.13 -1190.14,490.81 -1020.12,392.64" fill="url(#bm3g15)" stroke="url(#bm3g15)" stroke-width="0.30"/><polygon points="-510.06,490.81 -510.06,687.13 -680.08,785.29 -850.10,687.13 -850.10,490.81 -680.08,392.64" fill="url(#bm3g15)" stroke="url(#bm3g15)" stroke-width="0.30"/><polygon points="-170.02,490.81 -170.02,687.13 -340.04,785.29 -510.06,687.13 -510.06,490.81 -340.04,392.64" fill="url(#bm3g15)" stroke="url(#bm3g15)" stroke-width="0.30"/><polygon points="170.02,490.81 170.02,687.13 0.00,785.29 -170.02,687.13 -170.02,490.81 -0.00,392.64" fill="url(#bm3g15)" stroke="url(#bm3g15)" stroke-width="0.30"/><polygon points="510.06,490.81 510.06,687.13 340.04,785.29 170.02,687.13 170.02,490.81 340.04,392.64" fill="url(#bm3g15)" stroke="url(#bm3g15)" stroke-width="0.30"/><polygon points="850.10,490.81 850.10,687.13 680.08,785.29 510.06,687.13 510.06,490.81 680.08,392.64" fill="url(#bm3g15)" stroke="url(#bm3g15)" stroke-width="0.30"/><polygon points="1190.14,490.81 1190.14,687.13 1020.12,785.29 850.10,687.13 850.10,490.81 1020.12,392.64" fill="url(#bm3g15)" stroke="url(#bm3g15)" stroke-width="0.30"/><polygon points="1530.18,490.81 1530.18,687.13 1360.16,785.29 1190.14,687.13 1190.14,490.81 1360.16,392.64" fill="url(#bm3g15)" stroke="url(#bm3g15)" stroke-width="0.30"/><polygon points="1870.22,490.81 1870.22,687.13 1700.20,785.29 1530.18,687.13 1530.18,490.81 1700.20,392.64" fill="url(#bm3g15)" stroke="url(#bm3g15)" stroke-width="0.30"/><polygon points="2210.26,490.81 2210.26,687.13 2040.24,785.29 1870.22,687.13 1870.22,490.81 2040.24,392.64" fill="url(#bm3g15)" stroke="url(#bm3g15)" stroke-width="0.30"/><polygon points="2550.30,490.81 2550.30,687.13 2380.28,785.29 2210.26,687.13 2210.26,490.81 2380.28,392.64" fill="url(#bm3g15)" stroke="url(#bm3g15)" stroke-width="0.30"/><polygon points="2890.34,490.81 2890.34,687.13 2720.32,785.29 2550.30,687.13 2550.30,490.81 2720.32,392.64" fill="url(#bm3g15)" stroke="url(#bm3g15)" stroke-width="0.30"/><polygon points="3230.38,490.81 3230.38,687.13 3060.36,785.29 2890.34,687.13 2890.34,490.81 3060.36,392.64" fill="url(#bm3g15)" stroke="url(#bm3g15)" stroke-width="0.30"/><polygon points="3570.42,490.81 3570.42,687.13 3400.40,785.29 3230.38,687.13 3230.38,490.81 3400.40,392.64" fill="url(#bm3g15)" stroke="url(#bm3g15)" stroke-width="0.30"/><polygon points="3910.46,490.81 3910.46,687.13 3740.44,785.29 3570.42,687.13 3570.42,490.81 3740.44,392.64" fill="url(#bm3g15)" stroke="url(#bm3g15)" stroke-width="0.30"/><polygon points="4250.50,490.81 4250.50,687.13 4080.48,785.29 3910.46,687.13 3910.46,490.81 4080.48,392.64" fill="url(#bm3g15)" stroke="url(#bm3g15)" stroke-width="0.30"/><polygon points="-2040.24,785.29 -2040.24,981.61 -2210.26,1079.77 -2380.28,981.61 -2380.28,785.29 -2210.26,687.13" fill="url(#bm3g15)" stroke="url(#bm3g15)" stroke-width="0.30"/><polygon points="-1700.20,785.29 -1700.20,981.61 -1870.22,1079.77 -2040.24,981.61 -2040.24,785.29 -1870.22,687.13" fill="url(#bm3g15)" stroke="url(#bm3g15)" stroke-width="0.30"/><polygon points="-1360.16,785.29 -1360.16,981.61 -1530.18,1079.77 -1700.20,981.61 -1700.20,785.29 -1530.18,687.13" fill="url(#bm3g15)" stroke="url(#bm3g15)" stroke-width="0.30"/><polygon points="-1020.12,785.29 -1020.12,981.61 -1190.14,1079.77 -1360.16,981.61 -1360.16,785.29 -1190.14,687.13" fill="url(#bm3g15)" stroke="url(#bm3g15)" stroke-width="0.30"/><polygon points="-680.08,785.29 -680.08,981.61 -850.10,1079.77 -1020.12,981.61 -1020.12,785.29 -850.10,687.13" fill="url(#bm3g15)" stroke="url(#bm3g15)" stroke-width="0.30"/><polygon points="-340.04,785.29 -340.04,981.61 -510.06,1079.77 -680.08,981.61 -680.08,785.29 -510.06,687.13" fill="url(#bm3g15)" stroke="url(#bm3g15)" stroke-width="0.30"/><polygon points="0.00,785.29 0.00,981.61 -170.02,1079.77 -340.04,981.61 -340.04,785.29 -170.02,687.13" fill="url(#bm3g15)" stroke="url(#bm3g15)" stroke-width="0.30"/><polygon points="340.04,785.29 340.04,981.61 170.02,1079.77 -0.00,981.61 0.00,785.29 170.02,687.13" fill="url(#bm3g15)" stroke="url(#bm3g15)" stroke-width="0.30"/><polygon points="680.08,785.29 680.08,981.61 510.06,1079.77 340.04,981.61 340.04,785.29 510.06,687.13" fill="url(#bm3g15)" stroke="url(#bm3g15)" stroke-width="0.30"/><polygon points="1020.12,785.29 1020.12,981.61 850.10,1079.77 680.08,981.61 680.08,785.29 850.10,687.13" fill="url(#bm3g15)" stroke="url(#bm3g15)" stroke-width="0.30"/><polygon points="1360.16,785.29 1360.16,981.61 1190.14,1079.77 1020.12,981.61 1020.12,785.29 1190.14,687.13" fill="url(#bm3g15)" stroke="url(#bm3g15)" stroke-width="0.30"/><polygon points="1700.20,785.29 1700.20,981.61 1530.18,1079.77 1360.16,981.61 1360.16,785.29 1530.18,687.13" fill="url(#bm3g15)" stroke="url(#bm3g15)" stroke-width="0.30"/><polygon points="2040.24,785.29 2040.24,981.61 1870.22,1079.77 1700.20,981.61 1700.20,785.29 1870.22,687.13" fill="url(#bm3g15)" stroke="url(#bm3g15)" stroke-width="0.30"/><polygon points="2380.28,785.29 2380.28,981.61 2210.26,1079.77 2040.24,981.61 2040.24,785.29 2210.26,687.13" fill="url(#bm3g15)" stroke="url(#bm3g15)" stroke-width="0.30"/><polygon points="2720.32,785.29 2720.32,981.61 2550.30,1079.77 2380.28,981.61 2380.28,785.29 2550.30,687.13" fill="url(#bm3g15)" stroke="url(#bm3g15)" stroke-width="0.30"/><polygon points="3060.36,785.29 3060.36,981.61 2890.34,1079.77 2720.32,981.61 2720.32,785.29 2890.34,687.13" fill="url(#bm3g15)" stroke="url(#bm3g15)" stroke-width="0.30"/><polygon points="3400.40,785.29 3400.40,981.61 3230.38,1079.77 3060.36,981.61 3060.36,785.29 3230.38,687.13" fill="url(#bm3g15)" stroke="url(#bm3g15)" stroke-width="0.30"/><polygon points="3740.44,785.29 3740.44,981.61 3570.42,1079.77 3400.40,981.61 3400.40,785.29 3570.42,687.13" fill="url(#bm3g15)" stroke="url(#bm3g15)" stroke-width="0.30"/><polygon points="4080.48,785.29 4080.48,981.61 3910.46,1079.77 3740.44,981.61 3740.44,785.29 3910.46,687.13" fill="url(#bm3g15)" stroke="url(#bm3g15)" stroke-width="0.30"/><polygon points="4420.53,785.29 4420.53,981.61 4250.50,1079.77 4080.48,981.61 4080.48,785.29 4250.50,687.13" fill="url(#bm3g15)" stroke="url(#bm3g15)" stroke-width="0.30"/><polygon points="-2210.26,1079.77 -2210.26,1276.10 -2380.28,1374.26 -2550.30,1276.10 -2550.30,1079.77 -2380.28,981.61" fill="url(#bm3g15)" stroke="url(#bm3g15)" stroke-width="0.30"/><polygon points="-1870.22,1079.77 -1870.22,1276.10 -2040.24,1374.26 -2210.26,1276.10 -2210.26,1079.77 -2040.24,981.61" fill="url(#bm3g15)" stroke="url(#bm3g15)" stroke-width="0.30"/><polygon points="-1530.18,1079.77 -1530.18,1276.10 -1700.20,1374.26 -1870.22,1276.10 -1870.22,1079.77 -1700.20,981.61" fill="url(#bm3g15)" stroke="url(#bm3g15)" stroke-width="0.30"/><polygon points="-1190.14,1079.77 -1190.14,1276.10 -1360.16,1374.26 -1530.18,1276.10 -1530.18,1079.77 -1360.16,981.61" fill="url(#bm3g15)" stroke="url(#bm3g15)" stroke-width="0.30"/><polygon points="-850.10,1079.77 -850.10,1276.10 -1020.12,1374.26 -1190.14,1276.10 -1190.14,1079.77 -1020.12,981.61" fill="url(#bm3g15)" stroke="url(#bm3g15)" stroke-width="0.30"/><polygon points="-510.06,1079.77 -510.06,1276.10 -680.08,1374.26 -850.10,1276.10 -850.10,1079.77 -680.08,981.61" fill="url(#bm3g15)" stroke="url(#bm3g15)" stroke-width="0.30"/><polygon points="-170.02,1079.77 -170.02,1276.10 -340.04,1374.26 -510.06,1276.10 -510.06,1079.77 -340.04,981.61" fill="url(#bm3g15)" stroke="url(#bm3g15)" stroke-width="0.30"/><polygon points="170.02,1079.77 170.02,1276.10 0.00,1374.26 -170.02,1276.10 -170.02,1079.77 -0.00,981.61" fill="url(#bm3g15)" stroke="url(#bm3g15)" stroke-width="0.30"/><polygon points="510.06,1079.77 510.06,1276.10 340.04,1374.26 170.02,1276.10 170.02,1079.77 340.04,981.61" fill="url(#bm3g15)" stroke="url(#bm3g15)" stroke-width="0.30"/><polygon points="850.10,1079.77 850.10,1276.10 680.08,1374.26 510.06,1276.10 510.06,1079.77 680.08,981.61" fill="url(#bm3g15)" stroke="url(#bm3g15)" stroke-width="0.30"/><polygon points="1190.14,1079.77 1190.14,1276.10 1020.12,1374.26 850.10,1276.10 850.10,1079.77 1020.12,981.61" fill="url(#bm3g15)" stroke="url(#bm3g15)" stroke-width="0.30"/><polygon points="1530.18,1079.77 1530.18,1276.10 1360.16,1374.26 1190.14,1276.10 1190.14,1079.77 1360.16,981.61" fill="url(#bm3g15)" stroke="url(#bm3g15)" stroke-width="0.30"/><polygon points="1870.22,1079.77 1870.22,1276.10 1700.20,1374.26 1530.18,1276.10 1530.18,1079.77 1700.20,981.61" fill="url(#bm3g15)" stroke="url(#bm3g15)" stroke-width="0.30"/><polygon points="2210.26,1079.77 2210.26,1276.10 2040.24,1374.26 1870.22,1276.10 1870.22,1079.77 2040.24,981.61" fill="url(#bm3g15)" stroke="url(#bm3g15)" stroke-width="0.30"/><polygon points="2550.30,1079.77 2550.30,1276.10 2380.28,1374.26 2210.26,1276.10 2210.26,1079.77 2380.28,981.61" fill="url(#bm3g15)" stroke="url(#bm3g15)" stroke-width="0.30"/><polygon points="2890.34,1079.77 2890.34,1276.10 2720.32,1374.26 2550.30,1276.10 2550.30,1079.77 2720.32,981.61" fill="url(#bm3g15)" stroke="url(#bm3g15)" stroke-width="0.30"/><polygon points="3230.38,1079.77 3230.38,1276.10 3060.36,1374.26 2890.34,1276.10 2890.34,1079.77 3060.36,981.61" fill="url(#bm3g15)" stroke="url(#bm3g15)" stroke-width="0.30"/><polygon points="3570.42,1079.77 3570.42,1276.10 3400.40,1374.26 3230.38,1276.10 3230.38,1079.77 3400.40,981.61" fill="url(#bm3g15)" stroke="url(#bm3g15)" stroke-width="0.30"/><polygon points="3910.46,1079.77 3910.46,1276.10 3740.44,1374.26 3570.42,1276.10 3570.42,1079.77 3740.44,981.61" fill="url(#bm3g15)" stroke="url(#bm3g15)" stroke-width="0.30"/><polygon points="4250.50,1079.77 4250.50,1276.10 4080.48,1374.26 3910.46,1276.10 3910.46,1079.77 4080.48,981.61" fill="url(#bm3g15)" stroke="url(#bm3g15)" stroke-width="0.30"/><polygon points="-2040.24,1374.26 -2040.24,1570.58 -2210.26,1668.74 -2380.28,1570.58 -2380.28,1374.26 -2210.26,1276.10" fill="url(#bm3g15)" stroke="url(#bm3g15)" stroke-width="0.30"/><polygon points="-1700.20,1374.26 -1700.20,1570.58 -1870.22,1668.74 -2040.24,1570.58 -2040.24,1374.26 -1870.22,1276.10" fill="url(#bm3g15)" stroke="url(#bm3g15)" stroke-width="0.30"/><polygon points="-1360.16,1374.26 -1360.16,1570.58 -1530.18,1668.74 -1700.20,1570.58 -1700.20,1374.26 -1530.18,1276.10" fill="url(#bm3g15)" stroke="url(#bm3g15)" stroke-width="0.30"/><polygon points="-1020.12,1374.26 -1020.12,1570.58 -1190.14,1668.74 -1360.16,1570.58 -1360.16,1374.26 -1190.14,1276.10" fill="url(#bm3g15)" stroke="url(#bm3g15)" stroke-width="0.30"/><polygon points="-680.08,1374.26 -680.08,1570.58 -850.10,1668.74 -1020.12,1570.58 -1020.12,1374.26 -850.10,1276.10" fill="url(#bm3g15)" stroke="url(#bm3g15)" stroke-width="0.30"/><polygon points="-340.04,1374.26 -340.04,1570.58 -510.06,1668.74 -680.08,1570.58 -680.08,1374.26 -510.06,1276.10" fill="url(#bm3g15)" stroke="url(#bm3g15)" stroke-width="0.30"/><polygon points="0.00,1374.26 0.00,1570.58 -170.02,1668.74 -340.04,1570.58 -340.04,1374.26 -170.02,1276.10" fill="url(#bm3g15)" stroke="url(#bm3g15)" stroke-width="0.30"/><polygon points="340.04,1374.26 340.04,1570.58 170.02,1668.74 -0.00,1570.58 0.00,1374.26 170.02,1276.10" fill="url(#bm3g15)" stroke="url(#bm3g15)" stroke-width="0.30"/><polygon points="680.08,1374.26 680.08,1570.58 510.06,1668.74 340.04,1570.58 340.04,1374.26 510.06,1276.10" fill="url(#bm3g15)" stroke="url(#bm3g15)" stroke-width="0.30"/><polygon points="1020.12,1374.26 1020.12,1570.58 850.10,1668.74 680.08,1570.58 680.08,1374.26 850.10,1276.10" fill="url(#bm3g15)" stroke="url(#bm3g15)" stroke-width="0.30"/><polygon points="1360.16,1374.26 1360.16,1570.58 1190.14,1668.74 1020.12,1570.58 1020.12,1374.26 1190.14,1276.10" fill="url(#bm3g15)" stroke="url(#bm3g15)" stroke-width="0.30"/><polygon points="1700.20,1374.26 1700.20,1570.58 1530.18,1668.74 1360.16,1570.58 1360.16,1374.26 1530.18,1276.10" fill="url(#bm3g15)" stroke="url(#bm3g15)" stroke-width="0.30"/><polygon points="2040.24,1374.26 2040.24,1570.58 1870.22,1668.74 1700.20,1570.58 1700.20,1374.26 1870.22,1276.10" fill="url(#bm3g15)" stroke="url(#bm3g15)" stroke-width="0.30"/><polygon points="2380.28,1374.26 2380.28,1570.58 2210.26,1668.74 2040.24,1570.58 2040.24,1374.26 2210.26,1276.10" fill="url(#bm3g15)" stroke="url(#bm3g15)" stroke-width="0.30"/><polygon points="2720.32,1374.26 2720.32,1570.58 2550.30,1668.74 2380.28,1570.58 2380.28,1374.26 2550.30,1276.10" fill="url(#bm3g15)" stroke="url(#bm3g15)" stroke-width="0.30"/><polygon points="3060.36,1374.26 3060.36,1570.58 2890.34,1668.74 2720.32,1570.58 2720.32,1374.26 2890.34,1276.10" fill="url(#bm3g15)" stroke="url(#bm3g15)" stroke-width="0.30"/><polygon points="3400.40,1374.26 3400.40,1570.58 3230.38,1668.74 3060.36,1570.58 3060.36,1374.26 3230.38,1276.10" fill="url(#bm3g15)" stroke="url(#bm3g15)" stroke-width="0.30"/><polygon points="3740.44,1374.26 3740.44,1570.58 3570.42,1668.74 3400.40,1570.58 3400.40,1374.26 3570.42,1276.10" fill="url(#bm3g15)" stroke="url(#bm3g15)" stroke-width="0.30"/><polygon points="4080.48,1374.26 4080.48,1570.58 3910.46,1668.74 3740.44,1570.58 3740.44,1374.26 3910.46,1276.10" fill="url(#bm3g15)" stroke="url(#bm3g15)" stroke-width="0.30"/><polygon points="4420.53,1374.26 4420.53,1570.58 4250.50,1668.74 4080.48,1570.58 4080.48,1374.26 4250.50,1276.10" fill="url(#bm3g15)" stroke="url(#bm3g15)" stroke-width="0.30"/><polygon points="-2210.26,1668.74 -2210.26,1865.06 -2380.28,1963.22 -2550.30,1865.06 -2550.30,1668.74 -2380.28,1570.58" fill="url(#bm3g15)" stroke="url(#bm3g15)" stroke-width="0.30"/><polygon points="-1870.22,1668.74 -1870.22,1865.06 -2040.24,1963.22 -2210.26,1865.06 -2210.26,1668.74 -2040.24,1570.58" fill="url(#bm3g15)" stroke="url(#bm3g15)" stroke-width="0.30"/><polygon points="-1530.18,1668.74 -1530.18,1865.06 -1700.20,1963.22 -1870.22,1865.06 -1870.22,1668.74 -1700.20,1570.58" fill="url(#bm3g15)" stroke="url(#bm3g15)" stroke-width="0.30"/><polygon points="-1190.14,1668.74 -1190.14,1865.06 -1360.16,1963.22 -1530.18,1865.06 -1530.18,1668.74 -1360.16,1570.58" fill="url(#bm3g15)" stroke="url(#bm3g15)" stroke-width="0.30"/><polygon points="-850.10,1668.74 -850.10,1865.06 -1020.12,1963.22 -1190.14,1865.06 -1190.14,1668.74 -1020.12,1570.58" fill="url(#bm3g15)" stroke="url(#bm3g15)" stroke-width="0.30"/><polygon points="-510.06,1668.74 -510.06,1865.06 -680.08,1963.22 -850.10,1865.06 -850.10,1668.74 -680.08,1570.58" fill="url(#bm3g15)" stroke="url(#bm3g15)" stroke-width="0.30"/><polygon points="-170.02,1668.74 -170.02,1865.06 -340.04,1963.22 -510.06,1865.06 -510.06,1668.74 -340.04,1570.58" fill="url(#bm3g15)" stroke="url(#bm3g15)" stroke-width="0.30"/><polygon points="170.02,1668.74 170.02,1865.06 0.00,1963.22 -170.02,1865.06 -170.02,1668.74 -0.00,1570.58" fill="url(#bm3g15)" stroke="url(#bm3g15)" stroke-width="0.30"/><polygon points="510.06,1668.74 510.06,1865.06 340.04,1963.22 170.02,1865.06 170.02,1668.74 340.04,1570.58" fill="url(#bm3g15)" stroke="url(#bm3g15)" stroke-width="0.30"/><polygon points="850.10,1668.74 850.10,1865.06 680.08,1963.22 510.06,1865.06 510.06,1668.74 680.08,1570.58" fill="url(#bm3g15)" stroke="url(#bm3g15)" stroke-width="0.30"/><polygon points="1190.14,1668.74 1190.14,1865.06 1020.12,1963.22 850.10,1865.06 850.10,1668.74 1020.12,1570.58" fill="url(#bm3g15)" stroke="url(#bm3g15)" stroke-width="0.30"/><polygon points="1530.18,1668.74 1530.18,1865.06 1360.16,1963.22 1190.14,1865.06 1190.14,1668.74 1360.16,1570.58" fill="url(#bm3g15)" stroke="url(#bm3g15)" stroke-width="0.30"/><polygon points="1870.22,1668.74 1870.22,1865.06 1700.20,1963.22 1530.18,1865.06 1530.18,1668.74 1700.20,1570.58" fill="url(#bm3g15)" stroke="url(#bm3g15)" stroke-width="0.30"/><polygon points="2210.26,1668.74 2210.26,1865.06 2040.24,1963.22 1870.22,1865.06 1870.22,1668.74 2040.24,1570.58" fill="url(#bm3g15)" stroke="url(#bm3g15)" stroke-width="0.30"/><polygon points="2550.30,1668.74 2550.30,1865.06 2380.28,1963.22 2210.26,1865.06 2210.26,1668.74 2380.28,1570.58" fill="url(#bm3g15)" stroke="url(#bm3g15)" stroke-width="0.30"/><polygon points="2890.34,1668.74 2890.34,1865.06 2720.32,1963.22 2550.30,1865.06 2550.30,1668.74 2720.32,1570.58" fill="url(#bm3g15)" stroke="url(#bm3g15)" stroke-width="0.30"/><polygon points="3230.38,1668.74 3230.38,1865.06 3060.36,1963.22 2890.34,1865.06 2890.34,1668.74 3060.36,1570.58" fill="url(#bm3g15)" stroke="url(#bm3g15)" stroke-width="0.30"/><polygon points="3570.42,1668.74 3570.42,1865.06 3400.40,1963.22 3230.38,1865.06 3230.38,1668.74 3400.40,1570.58" fill="url(#bm3g15)" stroke="url(#bm3g15)" stroke-width="0.30"/><polygon points="3910.46,1668.74 3910.46,1865.06 3740.44,1963.22 3570.42,1865.06 3570.42,1668.74 3740.44,1570.58" fill="url(#bm3g15)" stroke="url(#bm3g15)" stroke-width="0.30"/><polygon points="4250.50,1668.74 4250.50,1865.06 4080.48,1963.22 3910.46,1865.06 3910.46,1668.74 4080.48,1570.58" fill="url(#bm3g15)" stroke="url(#bm3g15)" stroke-width="0.30"/><polygon points="-2040.24,1963.22 -2040.24,2159.55 -2210.26,2257.71 -2380.28,2159.55 -2380.28,1963.22 -2210.26,1865.06" fill="url(#bm3g15)" stroke="url(#bm3g15)" stroke-width="0.30"/><polygon points="-1700.20,1963.22 -1700.20,2159.55 -1870.22,2257.71 -2040.24,2159.55 -2040.24,1963.22 -1870.22,1865.06" fill="url(#bm3g15)" stroke="url(#bm3g15)" stroke-width="0.30"/><polygon points="-1360.16,1963.22 -1360.16,2159.55 -1530.18,2257.71 -1700.20,2159.55 -1700.20,1963.22 -1530.18,1865.06" fill="url(#bm3g15)" stroke="url(#bm3g15)" stroke-width="0.30"/><polygon points="-1020.12,1963.22 -1020.12,2159.55 -1190.14,2257.71 -1360.16,2159.55 -1360.16,1963.22 -1190.14,1865.06" fill="url(#bm3g15)" stroke="url(#bm3g15)" stroke-width="0.30"/><polygon points="-680.08,1963.22 -680.08,2159.55 -850.10,2257.71 -1020.12,2159.55 -1020.12,1963.22 -850.10,1865.06" fill="url(#bm3g15)" stroke="url(#bm3g15)" stroke-width="0.30"/><polygon points="-340.04,1963.22 -340.04,2159.55 -510.06,2257.71 -680.08,2159.55 -680.08,1963.22 -510.06,1865.06" fill="url(#bm3g15)" stroke="url(#bm3g15)" stroke-width="0.30"/><polygon points="0.00,1963.22 0.00,2159.55 -170.02,2257.71 -340.04,2159.55 -340.04,1963.22 -170.02,1865.06" fill="url(#bm3g15)" stroke="url(#bm3g15)" stroke-width="0.30"/><polygon points="340.04,1963.22 340.04,2159.55 170.02,2257.71 -0.00,2159.55 0.00,1963.22 170.02,1865.06" fill="url(#bm3g15)" stroke="url(#bm3g15)" stroke-width="0.30"/><polygon points="680.08,1963.22 680.08,2159.55 510.06,2257.71 340.04,2159.55 340.04,1963.22 510.06,1865.06" fill="url(#bm3g15)" stroke="url(#bm3g15)" stroke-width="0.30"/><polygon points="1020.12,1963.22 1020.12,2159.55 850.10,2257.71 680.08,2159.55 680.08,1963.22 850.10,1865.06" fill="url(#bm3g15)" stroke="url(#bm3g15)" stroke-width="0.30"/><polygon points="1360.16,1963.22 1360.16,2159.55 1190.14,2257.71 1020.12,2159.55 1020.12,1963.22 1190.14,1865.06" fill="url(#bm3g15)" stroke="url(#bm3g15)" stroke-width="0.30"/><polygon points="1700.20,1963.22 1700.20,2159.55 1530.18,2257.71 1360.16,2159.55 1360.16,1963.22 1530.18,1865.06" fill="url(#bm3g15)" stroke="url(#bm3g15)" stroke-width="0.30"/><polygon points="2040.24,1963.22 2040.24,2159.55 1870.22,2257.71 1700.20,2159.55 1700.20,1963.22 1870.22,1865.06" fill="url(#bm3g15)" stroke="url(#bm3g15)" stroke-width="0.30"/><polygon points="2380.28,1963.22 2380.28,2159.55 2210.26,2257.71 2040.24,2159.55 2040.24,1963.22 2210.26,1865.06" fill="url(#bm3g15)" stroke="url(#bm3g15)" stroke-width="0.30"/><polygon points="2720.32,1963.22 2720.32,2159.55 2550.30,2257.71 2380.28,2159.55 2380.28,1963.22 2550.30,1865.06" fill="url(#bm3g15)" stroke="url(#bm3g15)" stroke-width="0.30"/><polygon points="3060.36,1963.22 3060.36,2159.55 2890.34,2257.71 2720.32,2159.55 2720.32,1963.22 2890.34,1865.06" fill="url(#bm3g15)" stroke="url(#bm3g15)" stroke-width="0.30"/><polygon points="3400.40,1963.22 3400.40,2159.55 3230.38,2257.71 3060.36,2159.55 3060.36,1963.22 3230.38,1865.06" fill="url(#bm3g15)" stroke="url(#bm3g15)" stroke-width="0.30"/><polygon points="3740.44,1963.22 3740.44,2159.55 3570.42,2257.71 3400.40,2159.55 3400.40,1963.22 3570.42,1865.06" fill="url(#bm3g15)" stroke="url(#bm3g15)" stroke-width="0.30"/><polygon points="4080.48,1963.22 4080.48,2159.55 3910.46,2257.71 3740.44,2159.55 3740.44,1963.22 3910.46,1865.06" fill="url(#bm3g15)" stroke="url(#bm3g15)" stroke-width="0.30"/><polygon points="4420.53,1963.22 4420.53,2159.55 4250.50,2257.71 4080.48,2159.55 4080.48,1963.22 4250.50,1865.06" fill="url(#bm3g15)" stroke="url(#bm3g15)" stroke-width="0.30"/><polygon points="-2210.26,2257.71 -2210.26,2454.03 -2380.28,2552.19 -2550.30,2454.03 -2550.30,2257.71 -2380.28,2159.55" fill="url(#bm3g15)" stroke="url(#bm3g15)" stroke-width="0.30"/><polygon points="-1870.22,2257.71 -1870.22,2454.03 -2040.24,2552.19 -2210.26,2454.03 -2210.26,2257.71 -2040.24,2159.55" fill="url(#bm3g15)" stroke="url(#bm3g15)" stroke-width="0.30"/><polygon points="-1530.18,2257.71 -1530.18,2454.03 -1700.20,2552.19 -1870.22,2454.03 -1870.22,2257.71 -1700.20,2159.55" fill="url(#bm3g15)" stroke="url(#bm3g15)" stroke-width="0.30"/><polygon points="-1190.14,2257.71 -1190.14,2454.03 -1360.16,2552.19 -1530.18,2454.03 -1530.18,2257.71 -1360.16,2159.55" fill="url(#bm3g15)" stroke="url(#bm3g15)" stroke-width="0.30"/><polygon points="-850.10,2257.71 -850.10,2454.03 -1020.12,2552.19 -1190.14,2454.03 -1190.14,2257.71 -1020.12,2159.55" fill="url(#bm3g15)" stroke="url(#bm3g15)" stroke-width="0.30"/><polygon points="-510.06,2257.71 -510.06,2454.03 -680.08,2552.19 -850.10,2454.03 -850.10,2257.71 -680.08,2159.55" fill="url(#bm3g15)" stroke="url(#bm3g15)" stroke-width="0.30"/><polygon points="-170.02,2257.71 -170.02,2454.03 -340.04,2552.19 -510.06,2454.03 -510.06,2257.71 -340.04,2159.55" fill="url(#bm3g15)" stroke="url(#bm3g15)" stroke-width="0.30"/><polygon points="170.02,2257.71 170.02,2454.03 0.00,2552.19 -170.02,2454.03 -170.02,2257.71 -0.00,2159.55" fill="url(#bm3g15)" stroke="url(#bm3g15)" stroke-width="0.30"/><polygon points="510.06,2257.71 510.06,2454.03 340.04,2552.19 170.02,2454.03 170.02,2257.71 340.04,2159.55" fill="url(#bm3g15)" stroke="url(#bm3g15)" stroke-width="0.30"/><polygon points="850.10,2257.71 850.10,2454.03 680.08,2552.19 510.06,2454.03 510.06,2257.71 680.08,2159.55" fill="url(#bm3g15)" stroke="url(#bm3g15)" stroke-width="0.30"/><polygon points="1190.14,2257.71 1190.14,2454.03 1020.12,2552.19 850.10,2454.03 850.10,2257.71 1020.12,2159.55" fill="url(#bm3g15)" stroke="url(#bm3g15)" stroke-width="0.30"/><polygon points="1530.18,2257.71 1530.18,2454.03 1360.16,2552.19 1190.14,2454.03 1190.14,2257.71 1360.16,2159.55" fill="url(#bm3g15)" stroke="url(#bm3g15)" stroke-width="0.30"/><polygon points="1870.22,2257.71 1870.22,2454.03 1700.20,2552.19 1530.18,2454.03 1530.18,2257.71 1700.20,2159.55" fill="url(#bm3g15)" stroke="url(#bm3g15)" stroke-width="0.30"/><polygon points="2210.26,2257.71 2210.26,2454.03 2040.24,2552.19 1870.22,2454.03 1870.22,2257.71 2040.24,2159.55" fill="url(#bm3g15)" stroke="url(#bm3g15)" stroke-width="0.30"/><polygon points="2550.30,2257.71 2550.30,2454.03 2380.28,2552.19 2210.26,2454.03 2210.26,2257.71 2380.28,2159.55" fill="url(#bm3g15)" stroke="url(#bm3g15)" stroke-width="0.30"/><polygon points="2890.34,2257.71 2890.34,2454.03 2720.32,2552.19 2550.30,2454.03 2550.30,2257.71 2720.32,2159.55" fill="url(#bm3g15)" stroke="url(#bm3g15)" stroke-width="0.30"/><polygon points="3230.38,2257.71 3230.38,2454.03 3060.36,2552.19 2890.34,2454.03 2890.34,2257.71 3060.36,2159.55" fill="url(#bm3g15)" stroke="url(#bm3g15)" stroke-width="0.30"/><polygon points="3570.42,2257.71 3570.42,2454.03 3400.40,2552.19 3230.38,2454.03 3230.38,2257.71 3400.40,2159.55" fill="url(#bm3g15)" stroke="url(#bm3g15)" stroke-width="0.30"/><polygon points="3910.46,2257.71 3910.46,2454.03 3740.44,2552.19 3570.42,2454.03 3570.42,2257.71 3740.44,2159.55" fill="url(#bm3g15)" stroke="url(#bm3g15)" stroke-width="0.30"/><polygon points="4250.50,2257.71 4250.50,2454.03 4080.48,2552.19 3910.46,2454.03 3910.46,2257.71 4080.48,2159.55" fill="url(#bm3g15)" stroke="url(#bm3g15)" stroke-width="0.30"/></g></g><metadata><evolvesvg:genome xmlns:evolvesvg="https://evolvesvg">{"palette":[{"h":268.1808255198449,"s":100,"l":39.691812851914946},{"h":232.0058581308175,"s":10,"l":5},{"h":305.45416233835,"s":57.23619338986708,"l":60.98521963548704},{"h":343.360045659481,"s":82.33882302809985,"l":95},{"h":336.9947046892862,"s":67.4665415541193,"l":9.749846817598117},{"h":174.85197147802637,"s":88.78815591656367,"l":75.40764034007499}],"background":{"type":"radial","paletteIdx":0,"paletteIdx2":1,"angle":92.6300160972512},"layers":[{"type":"crosshatch","cx":0.2987169279458426,"cy":0.713915341705837,"params":{"spacing":33.31512796123052,"lineWidth":1.5738067306033134,"angle":67.46075361821534},"fill":{"type":"radial","paletteIdx":2,"paletteIdx2":4,"alpha":1,"angle":134.71463018709915},"stroke":{"paletteIdx":0,"width":0.013270043870705048,"alpha":0.22404606376947644},"opacity":0.8770918504196045,"blendMode":"screen","transform":{"rotate":224.63001504668262,"scaleX":0.6988178495889252,"scaleY":1.4156794826912658},"arrangement":"scatter","arrangementParams":{"count":8},"colorShift":{"hueRotate":293.6984433345117,"saturate":0.8229711648550994},"displace":{"scale":84.45999796541054,"baseFreq":0.054428453737024846,"octaves":1}},{"type":"rect","cx":0.9601625843550188,"cy":0.20194418359396737,"params":{"w":0.1613266497541459,"h":0.11638222322819981,"rx":0.11038559051309299},"fill":{"type":"solid","paletteIdx":1,"paletteIdx2":1,"alpha":0.6307256504353519,"angle":193.2927465778247},"stroke":{"paletteIdx":0,"width":0.0006037273012840132,"alpha":0.38117246068175104},"opacity":0.5610418884132765,"blendMode":"normal","transform":{"rotate":184.1296547875338,"scaleX":1.474756376147385,"scaleY":1.834724551874097},"arrangement":"single","arrangementParams":{},"mask":{"type":"radial","cx":0.16501676237277102,"cy":0.5449804176053968,"r":0.7667770487296004,"angle":27.17125193814789}},{"type":"ellipse","cx":0.3923699662610572,"cy":0.13106693704579891,"params":{"rx":0.14276052836039319,"ry":0.29531203117208854},"fill":{"type":"radial","paletteIdx":1,"paletteIdx2":1,"alpha":0.6395680737862518,"angle":314.9820947456635},"stroke":{"paletteIdx":3,"width":0.007774859799266687,"alpha":0.5834261088075653},"opacity":0.9861171149875994,"blendMode":"color-dodge","transform":{"rotate":83.40988402828197,"scaleX":0.5149784862565728,"scaleY":1.5267094472497555},"arrangement":"scatter","arrangementParams":{"count":12},"colorShift":{"hueRotate":343.4310213612407,"saturate":2.011763532061448}},{"type":"polygon","cx":0.44172485682386975,"cy":0.6357214442215248,"params":{"sides":3,"r":0.22162914655825627},"fill":{"type":"solid","paletteIdx":3,"paletteIdx2":1,"alpha":0.8850891035915235,"angle":34.28947620323162},"stroke":{"paletteIdx":0,"width":0.012671267923314139,"alpha":0.17074506139296725},"opacity":0.8853589342944616,"blendMode":"multiply","transform":{"rotate":73.57604215262336,"scaleX":1.9672932492916166,"scaleY":1.8037332763319056},"arrangement":"radial","arrangementParams":{"count":7}},{"type":"waves","cx":0.25206224915190945,"cy":0.732630810655276,"params":{"spacing":56.176290831221216,"amplitude":19.900375383882675,"frequency":1.6854621973814503,"lineWidth":10.646135728633018},"fill":{"type":"linear","paletteIdx":2,"paletteIdx2":4,"alpha":0.6997395326761195,"angle":53.20035705566784},"stroke":{"paletteIdx":4,"width":0.009364537594301562,"alpha":0.8303163807305226},"opacity":1,"blendMode":"color-dodge","transform":{"rotate":113.36910120194989,"scaleX":1.8542107252502094,"scaleY":0.6611326942525627},"arrangement":"scatter","arrangementParams":{"count":11},"displace":{"scale":161.0438155695439,"baseFreq":0.12916219899818512,"octaves":5}},{"type":"rect","cx":0.6267696407339265,"cy":0.7664364813201308,"params":{"w":0.3255252602671951,"h":0.29863969522992106,"rx":0.05704145089379576},"fill":{"type":"solid","paletteIdx":4,"paletteIdx2":0,"alpha":0.3704909246069485,"angle":253.7002385911491},"stroke":{"paletteIdx":3,"width":0.01617416347010293,"alpha":0.6319781846467414},"opacity":0.7589372075565864,"blendMode":"hard-light","transform":{"rotate":184.7104113867665,"scaleX":1.4491124456720756,"scaleY":1.4542349017299112},"arrangement":"scatter","arrangementParams":{"count":11},"mask":{"type":"radial","cx":0.7187526589772587,"cy":0.4321955458603956,"r":0.512074043562673,"angle":61.601242192190625},"displace":{"scale":44.31812401581117,"baseFreq":0.04493264922215156,"octaves":4},"colorShift":{"hueRotate":313.7610805405533,"saturate":1.147457294566206}},{"type":"hexgrid","cx":0.4093437981217014,"cy":0.46375599194718986,"params":{"size":65.44080427406843,"lineWidth":0.1,"filled":true},"fill":{"type":"linear","paletteIdx":1,"paletteIdx2":1,"alpha":0.5942316276397211,"angle":110.5119844374459},"stroke":{"paletteIdx":1,"width":0.006993875630201267,"alpha":0.6320578169798368},"opacity":0.9412085077560695,"blendMode":"overlay","transform":{"rotate":44.82455338452729,"scaleX":0.7005717987041957,"scaleY":0.6084278983078993},"arrangement":"grid","arrangementParams":{"nx":3,"ny":2},"displace":{"scale":124.5367500245445,"baseFreq":0.12892134085077828,"octaves":6}}]}</evolvesvg:genome></metadata></svg>