<svg viewBox="0 0 1920 1080" xmlns="http://www.w3.org/2000/svg" width="1920" height="1080" preserveAspectRatio="xMidYMid slice"><defs><linearGradient id="bm5g1" x1="54.536634788057704%" y1="99.7937641155977%" x2="45.4633652119423%" y2="0.206235884402306%"><stop offset="0%" stop-color="hsla(341.4,80.7%,16.4%,1.000)"/><stop offset="100%" stop-color="hsla(261.0,10.0%,15.1%,1.000)"/></linearGradient><linearGradient id="bm5g2" x1="2.4447539377982554%" y1="34.55660102297926%" x2="97.55524606220175%" y2="65.44339897702073%"><stop offset="0%" stop-color="hsla(341.4,80.7%,16.4%,0.597)"/><stop offset="100%" stop-color="hsla(261.0,10.0%,15.1%,0.597)"/></linearGradient><filter id="bm5g3" x="-30%" y="-30%" width="160%" height="160%"><feTurbulence type="fractalNoise" baseFrequency="0.0166" numOctaves="1" result="noise"/><feDisplacementMap in="SourceGraphic" in2="noise" scale="97.6" xChannelSelector="R" yChannelSelector="G" result="disp"/><feColorMatrix in="disp" type="hueRotate" values="263.5" result="hued"/><feColorMatrix in="hued" type="saturate" values="1.11" result="sat"/></filter><radialGradient id="bm5g4" cx="50%" cy="50%" r="50%"><stop offset="0%" stop-color="hsla(261.0,10.0%,15.1%,0.729)"/><stop offset="100%" stop-color="hsla(32.0,69.3%,29.1%,0.729)"/></radialGradient><pattern id="bm5g5" x="0" y="0" width="39.57963653398317" height="39.57963653398317" patternUnits="userSpaceOnUse"><rect x="0" y="0" width="19.789818266991585" height="19.789818266991585" fill="url(#bm5g4)"/><rect x="19.789818266991585" y="19.789818266991585" width="19.789818266991585" height="19.789818266991585" fill="url(#bm5g4)"/></pattern><filter id="bm5g6" x="-30%" y="-30%" width="160%" height="160%"><feTurbulence type="fractalNoise" baseFrequency="0.1229" numOctaves="5" result="noise"/><feDisplacementMap in="SourceGraphic" in2="noise" scale="31.1" xChannelSelector="R" yChannelSelector="G" result="disp"/></filter><radialGradient id="bm5g7" cx="50%" cy="50%" r="50%"><stop offset="0%" stop-color="hsla(140.6,79.8%,6.0%,0.821)"/><stop offset="100%" stop-color="hsla(341.4,80.7%,16.4%,0.821)"/></radialGradient><pattern id="bm5g8" x="0" y="0" width="14.03718142361578" height="14.03718142361578" patternUnits="userSpaceOnUse" patternTransform="rotate(12.3)"><line x1="0" y1="0" x2="0" y2="14.03718142361578" stroke="url(#bm5g7)" stroke-width="13.74" stroke-dasharray="9.3,3.8"/><line x1="0" y1="0" x2="14.03718142361578" y2="0" stroke="url(#bm5g7)" stroke-width="13.74" stroke-dasharray="9.3,3.8"/></pattern><filter id="bm5g9" x="-30%" y="-30%" width="160%" height="160%"><feTurbulence type="fractalNoise" baseFrequency="0.1096" numOctaves="3" result="noise"/><feDisplacementMap in="SourceGraphic" in2="noise" scale="44.2" xChannelSelector="R" yChannelSelector="G" result="disp"/><feColorMatrix in="disp" type="hueRotate" values="213.1" result="hued"/><feColorMatrix in="hued" type="saturate" values="1.34" result="sat"/></filter></defs><rect width="1920" height="1080" fill="url(#bm5g1)"/><g filter="url(#bm5g3)" ><g transform="translate(0.00,0.00) rotate(336.13) scale(1.953,1.095)" fill="url(#bm5g2)" stroke="hsla(355.1,100.0%,95.0%,0.305)" stroke-width="24.64" opacity="1.000" style="mix-blend-mode:hard-light"><circle cx="0" cy="0" r="546.59"/></g><g transform="translate(640.00,0.00) rotate(336.13) scale(1.953,1.095)" fill="url(#bm5g2)" stroke="hsla(355.1,100.0%,95.0%,0.305)" stroke-width="24.64" opacity="1.000" style="mix-blend-mode:hard-light"><circle cx="0" cy="0" r="546.59"/></g><g transform="translate(1280.00,0.00) rotate(336.13) scale(1.953,1.095)" fill="url(#bm5g2)" stroke="hsla(355.1,100.0%,95.0%,0.305)" stroke-width="24.64" opacity="1.000" style="mix-blend-mode:hard-light"><circle cx="0" cy="0" r="546.59"/></g><g transform="translate(1920.00,0.00) rotate(336.13) scale(1.953,1.095)" fill="url(#bm5g2)" stroke="hsla(355.1,100.0%,95.0%,0.305)" stroke-width="24.64" opacity="1.000" style="mix-blend-mode:hard-light"><circle cx="0" cy="0" r="546.59"/></g><g transform="translate(0.00,540.00) rotate(336.13) scale(1.953,1.095)" fill="url(#bm5g2)" stroke="hsla(355.1,100.0%,95.0%,0.305)" stroke-width="24.64" opacity="1.000" style="mix-blend-mode:hard-light"><circle cx="0" cy="0" r="546.59"/></g><g transform="translate(640.00,540.00) rotate(336.13) scale(1.953,1.095)" fill="url(#bm5g2)" stroke="hsla(355.1,100.0%,95.0%,0.305)" stroke-width="24.64" opacity="1.000" style="mix-blend-mode:hard-light"><circle cx="0" cy="0" r="546.59"/></g><g transform="translate(1280.00,540.00) rotate(336.13) scale(1.953,1.095)" fill="url(#bm5g2)" stroke="hsla(355.1,100.0%,95.0%,0.305)" stroke-width="24.64" opacity="1.000" style="mix-blend-mode:hard-light"><circle cx="0" cy="0" r="546.59"/></g><g transform="translate(1920.00,540.00) rotate(336.13) scale(1.953,1.095)" fill="url(#bm5g2)" stroke="hsla(355.1,100.0%,95.0%,0.305)" stroke-width="24.64" opacity="1.000" style="mix-blend-mode:hard-light"><circle cx="0" cy="0" r="546.59"/></g><g transform="translate(0.00,1080.00) rotate(336.13) scale(1.953,1.095)" fill="url(#bm5g2)" stroke="hsla(355.1,100.0%,95.0%,0.305)" stroke-width="24.64" opacity="1.000" style="mix-blend-mode:hard-light"><circle cx="0" cy="0" r="546.59"/></g><g transform="translate(640.00,1080.00) rotate(336.13) scale(1.953,1.095)" fill="url(#bm5g2)" stroke="hsla(355.1,100.0%,95.0%,0.305)" stroke-width="24.64" opacity="1.000" style="mix-blend-mode:hard-light"><circle cx="0" cy="0" r="546.59"/></g><g transform="translate(1280.00,1080.00) rotate(336.13) scale(1.953,1.095)" fill="url(#bm5g2)" stroke="hsla(355.1,100.0%,95.0%,0.305)" stroke-width="24.64" opacity="1.000" style="mix-blend-mode:hard-light"><circle cx="0" cy="0" r="546.59"/></g><g transform="translate(1920.00,1080.00) rotate(336.13) scale(1.953,1.095)" fill="url(#bm5g2)" stroke="hsla(355.1,100.0%,95.0%,0.305)" stroke-width="24.64" opacity="1.000" style="mix-blend-mode:hard-light"><circle cx="0" cy="0" r="546.59"/></g></g><g opacity="0.620" style="mix-blend-mode:hard-light" filter="url(#bm5g6)" ><rect x="-1920" y="-1080" width="5760" height="3240" fill="url(#bm5g5)"/></g><g transform="translate(0.00,0.00) rotate(72.59) scale(1.334,0.345)" fill="hsla(355.1,100.0%,95.0%,0.645)" stroke="hsla(355.1,100.0%,95.0%,0.223)" stroke-width="15.08" opacity="0.993" style="mix-blend-mode:color-dodge" stroke-dasharray="17.5,7.5"><ellipse cx="0" cy="0" rx="599.80" ry="439.57"/></g><g transform="translate(960.00,0.00) rotate(72.59) scale(1.334,0.345)" fill="hsla(355.1,100.0%,95.0%,0.645)" stroke="hsla(355.1,100.0%,95.0%,0.223)" stroke-width="15.08" opacity="0.993" style="mix-blend-mode:color-dodge" stroke-dasharray="17.5,7.5"><ellipse cx="0" cy="0" rx="599.80" ry="439.57"/></g><g transform="translate(1920.00,0.00) rotate(72.59) scale(1.334,0.345)" fill="hsla(355.1,100.0%,95.0%,0.645)" stroke="hsla(355.1,100.0%,95.0%,0.223)" stroke-width="15.08" opacity="0.993" style="mix-blend-mode:color-dodge" stroke-dasharray="17.5,7.5"><ellipse cx="0" cy="0" rx="599.80" ry="439.57"/></g><g transform="translate(0.00,1080.00) rotate(72.59) scale(1.334,0.345)" fill="hsla(355.1,100.0%,95.0%,0.645)" stroke="hsla(355.1,100.0%,95.0%,0.223)" stroke-width="15.08" opacity="0.993" style="mix-blend-mode:color-dodge" stroke-dasharray="17.5,7.5"><ellipse cx="0" cy="0" rx="599.80" ry="439.57"/></g><g transform="translate(960.00,1080.00) rotate(72.59) scale(1.334,0.345)" fill="hsla(355.1,100.0%,95.0%,0.645)" stroke="hsla(355.1,100.0%,95.0%,0.223)" stroke-width="15.08" opacity="0.993" style="mix-blend-mode:color-dodge" stroke-dasharray="17.5,7.5"><ellipse cx="0" cy="0" rx="599.80" ry="439.57"/></g><g transform="translate(1920.00,1080.00) rotate(72.59) scale(1.334,0.345)" fill="hsla(355.1,100.0%,95.0%,0.645)" stroke="hsla(355.1,100.0%,95.0%,0.223)" stroke-width="15.08" opacity="0.993" style="mix-blend-mode:color-dodge" stroke-dasharray="17.5,7.5"><ellipse cx="0" cy="0" rx="599.80" ry="439.57"/></g><g opacity="0.890" style="mix-blend-mode:screen" filter="url(#bm5g9)" ><rect x="-1920" y="-1080" width="5760" height="3240" fill="url(#bm5g8)"/></g><g transform="translate(710.71,400.19) rotate(223.56) scale(1.463,1.492)" fill="hsla(355.1,100.0%,95.0%,0.758)" stroke="hsla(261.0,10.0%,15.1%,0.284)" stroke-width="3.52" opacity="0.573" style="mix-blend-mode:multiply"><polygon points="0.00,-342.70 242.33,-242.33 342.70,0.00 242.33,242.33 0.00,342.70 -242.33,242.33 -342.70,0.00 -242.33,-242.33"/></g><g transform="translate(712.94,401.45) rotate(223.98) scale(1.463,1.492)" fill="hsla(355.1,100.0%,95.0%,0.758)" stroke="hsla(261.0,10.0%,15.1%,0.284)" stroke-width="3.52" opacity="0.573" style="mix-blend-mode:multiply"><polygon points="0.00,-342.70 242.33,-242.33 342.70,0.00 242.33,242.33 0.00,342.70 -242.33,242.33 -342.70,0.00 -242.33,-242.33"/></g><g transform="translate(715.17,402.70) rotate(224.40) scale(1.463,1.492)" fill="hsla(355.1,100.0%,95.0%,0.758)" stroke="hsla(261.0,10.0%,15.1%,0.284)" stroke-width="3.52" opacity="0.573" style="mix-blend-mode:multiply"><polygon points="0.00,-342.70 242.33,-242.33 342.70,0.00 242.33,242.33 0.00,342.70 -242.33,242.33 -342.70,0.00 -242.33,-242.33"/></g><g transform="translate(717.41,403.96) rotate(224.82) scale(1.463,1.492)" fill="hsla(355.1,100.0%,95.0%,0.758)" stroke="hsla(261.0,10.0%,15.1%,0.284)" stroke-width="3.52" opacity="0.573" style="mix-blend-mode:multiply"><polygon points="0.00,-342.70 242.33,-242.33 342.70,0.00 242.33,242.33 0.00,342.70 -242.33,242.33 -342.70,0.00 -242.33,-242.33"/></g><g transform="translate(719.64,405.22) rotate(225.23) scale(1.463,1.492)" fill="hsla(355.1,100.0%,95.0%,0.758)" stroke="hsla(261.0,10.0%,15.1%,0.284)" stroke-width="3.52" opacity="0.573" style="mix-blend-mode:multiply"><polygon points="0.00,-342.70 242.33,-242.33 342.70,0.00 242.33,242.33 0.00,342.70 -242.33,242.33 -342.70,0.00 -242.33,-242.33"/></g><g transform="translate(721.87,406.47) rotate(225.65) scale(1.463,1.492)" fill="hsla(355.1,100.0%,95.0%,0.758)" stroke="hsla(261.0,10.0%,15.1%,0.284)" stroke-width="3.52" opacity="0.573" style="mix-blend-mode:multiply"><polygon points="0.00,-342.70 242.33,-242.33 342.70,0.00 242.33,242.33 0.00,342.70 -242.33,242.33 -342.70,0.00 -242.33,-242.33"/></g><g transform="translate(724.10,407.73) rotate(226.07) scale(1.463,1.492)" fill="hsla(355.1,100.0%,95.0%,0.758)" stroke="hsla(261.0,10.0%,15.1%,0.284)" stroke-width="3.52" opacity="0.573" style="mix-blend-mode:multiply"><polygon points="0.00,-342.70 242.33,-242.33 342.70,0.00 242.33,242.33 0.00,342.70 -242.33,242.33 -342.70,0.00 -242.33,-242.33"/></g><g transform="translate(726.34,408.98) rotate(226.49) scale(1.463,1.492)" fill="hsla(355.1,100.0%,95.0%,0.758)" stroke="hsla(261.0,10.0%,15.1%,0.284)" stroke-width="3.52" opacity="0.573" style="mix-blend-mode:multiply"><polygon points="0.00,-342.70 242.33,-242.33 342.70,0.00 242.33,242.33 0.00,342.70 -242.33,242.33 -342.70,0.00 -242.33,-242.33"/></g><g transform="translate(728.57,410.24) rotate(226.91) scale(1.463,1.492)" fill="hsla(355.1,100.0%,95.0%,0.758)" stroke="hsla(261.0,10.0%,15.1%,0.284)" stroke-width="3.52" opacity="0.573" style="mix-blend-mode:multiply"><polygon points="0.00,-342.70 242.33,-242.33 342.70,0.00 242.33,242.33 0.00,342.70 -242.33,242.33 -342.70,0.00 -242.33,-242.33"/></g><g transform="translate(730.80,411.49) rotate(227.33) scale(1.463,1.492)" fill="hsla(355.1,100.0%,95.0%,0.758)" stroke="hsla(261.0,10.0%,15.1%,0.284)" stroke-width="3.52" opacity="0.573" style="mix-blend-mode:multiply"><polygon points="0.00,-342.70 242.33,-242.33 342.70,0.00 242.33,242.33 0.00,342.70 -242.33,242.33 -342.70,0.00 -242.33,-242.33"/></g><g transform="translate(733.03,412.75) rotate(227.75) scale(1.463,1.492)" fill="hsla(355.1,100.0%,95.0%,0.758)" stroke="hsla(261.0,10.0%,15.1%,0.284)" stroke-width="3.52" opacity="0.573" style="mix-blend-mode:multiply"><polygon points="0.00,-342.70 242.33,-242.33 342.70,0.00 242.33,242.33 0.00,342.70 -242.33,242.33 -342.70,0.00 -242.33,-242.33"/></g><g transform="translate(735.26,414.00) rotate(228.16) scale(1.463,1.492)" fill="hsla(355.1,100.0%,95.0%,0.758)" stroke="hsla(261.0,10.0%,15.1%,0.284)" stroke-width="3.52" opacity="0.573" style="mix-blend-mode:multiply"><polygon points="0.00,-342.70 242.33,-242.33 342.70,0.00 242.33,242.33 0.00,342.70 -242.33,242.33 -342.70,0.00 -242.33,-242.33"/></g><metadata><evolvesvg:genome xmlns:evolvesvg="https://evolvesvg">{"palette":[{"h":341.4230133587562,"s":80.73719252843391,"l":16.417763813744585},{"h":260.9804057912636,"s":10,"l":15.077200170887577},{"h":355.0717692609511,"s":100,"l":95},{"h":140.58196659030796,"s":79.820260526307,"l":5.966869962423389},{"h":31.979613743664117,"s":69.26773249617679,"l":29.138499143804683}],"background":{"type":"linear","paletteIdx":0,"paletteIdx2":1,"angle":264.794240068925},"layers":[{"type":"circle","cx":0.2984229980850195,"cy":0.6634782071075584,"params":{"r":0.2846827192164643},"fill":{"type":"linear","paletteIdx":0,"paletteIdx2":1,"alpha":0.5972701507943478,"angle":17.991022926952894},"stroke":{"paletteIdx":2,"width":0.01283296107982881,"alpha":0.3049112594258197},"opacity":1,"blendMode":"hard-light","transform":{"rotate":336.13095330487045,"scaleX":1.9526709589430096,"scaleY":1.0946120487683402},"arrangement":"grid","arrangementParams":{"nx":4,"ny":3},"displace":{"scale":97.60794898040724,"baseFreq":0.016571287303601804,"octaves":1},"colorShift":{"hueRotate":263.5158759888559,"saturate":1.1103775247375727}},{"type":"checkerboard","cx":0.7711174425747481,"cy":0.5807814512957161,"params":{"size":6.596606088997195},"fill":{"type":"radial","paletteIdx":1,"paletteIdx2":4,"alpha":0.7292223583880171,"angle":230.64153234191122},"stroke":{"paletteIdx":3,"width":0.02965065841997109,"alpha":0.11025299745822131},"opacity":0.620082210028891,"blendMode":"hard-light","transform":{"rotate":127.29730481895933,"scaleX":0.27587825868479854,"scaleY":2.030344094645162},"arrangement":"scatter","arrangementParams":{"count":3},"displace":{"scale":31.110773753311793,"baseFreq":0.12286021364361693,"octaves":5},"dash":{"len":18.698301645794505,"gap":1.173910326474559}},{"type":"ellipse","cx":0.5289055920605863,"cy":0.7228146957905695,"params":{"rx":0.3123959711598118,"ry":0.22894025489855616},"fill":{"type":"solid","paletteIdx":2,"paletteIdx2":2,"alpha":0.6449267941164682,"angle":281.78808131418384},"stroke":{"paletteIdx":2,"width":0.007853707847666681,"alpha":0.22322449568677796},"opacity":0.9934445931743336,"blendMode":"color-dodge","transform":{"rotate":72.58835515045882,"scaleX":1.3342767961958217,"scaleY":0.34453047670534875},"arrangement":"grid","arrangementParams":{"nx":3,"ny":2},"dash":{"len":17.462184678279122,"gap":7.487166122349235}},{"type":"crosshatch","cx":0.030379714445971658,"cy":0.6847250183993776,"params":{"spacing":4.679060474538593,"lineWidth":4.579637393633187,"angle":12.290647175203512},"fill":{"type":"radial","paletteIdx":3,"paletteIdx2":0,"alpha":0.8213581873795566,"angle":160.21965113171723},"stroke":{"paletteIdx":4,"width":0.012610868690954955,"alpha":0.8163145406614278},"opacity":0.890368371599831,"blendMode":"screen","transform":{"rotate":178.1581316895688,"scaleX":0.9543447863758853,"scaleY":1.9424394969221674},"arrangement":"radial","arrangementParams":{"count":3},"dash":{"len":9.346768414505014,"gap":3.8340524544507155},"colorShift":{"hueRotate":213.09125091943554,"saturate":1.3426808228685811},"displace":{"scale":44.181803908963815,"baseFreq":0.10955947774256347,"octaves":3}},{"type":"polygon","cx":0.19674575130729874,"cy":0.1507044629569327,"params":{"sides":8,"r":0.17848953152099428},"fill":{"type":"solid","paletteIdx":2,"paletteIdx2":2,"alpha":0.7578590921351211,"angle":95.73000976185294},"stroke":{"paletteIdx":1,"width":0.0018335714577488,"alpha":0.28437730300427577},"opacity":0.5726022458804438,"blendMode":"multiply","transform":{"rotate":90.02345799493929,"scaleX":1.463231928983988,"scaleY":1.4915894253568},"arrangement":"scatter","arrangementParams":{"count":12}}]}</evolvesvg:genome></metadata></svg>